<?xml version="1.0" encoding="utf-8" ?>
<svg baseProfile="full" height="300mm" version="1.1" viewBox="0,0,200,300" width="200mm" xmlns="http://www.w3.org/2000/svg" xmlns:ev="http://www.w3.org/2001/xml-events" xmlns:xlink="http://www.w3.org/1999/xlink"><defs /><rect fill="#222222" height="300" width="200" x="0" y="0" /><text fill="#FFFFFF" style="font-size:12px; font-family:Arial; font-weight:bold;" x="10" y="20">Over 3km Runs</text><text fill="#FFFFFF" style="font-size:4px; font-family:Arial" x="10" y="280">ATHLETE</text><text fill="#FFFFFF" style="font-size:9px; font-family:Arial" x="10" y="290">LinJincan</text><text fill="#FFFFFF" style="font-size:4px; font-family:Arial" x="120" y="280">STATISTICS</text><text fill="#FFFFFF" style="font-size:3px; font-family:Arial" x="120" y="285">Number: 5</text><text fill="#FFFFFF" style="font-size:3px; font-family:Arial" x="120" y="290">Weekly: 1.7</text><text fill="#FFFFFF" style="font-size:3px; font-family:Arial" x="141" y="285">Total: 22.4 km</text><text fill="#FFFFFF" style="font-size:3px; font-family:Arial" x="141" y="290">Avg: 4.5 km</text><text fill="#FFFFFF" style="font-size:3px; font-family:Arial" x="167" y="285">Min: 3.1 km</text><text fill="#FFFFFF" style="font-size:3px; font-family:Arial" x="167" y="290">Max: 6.7 km</text><polyline fill="none" points="79.76923076948151,68.52514729928225 84.00961538450792,68.52514729928225 84.09615384647623,72.04580544272903 82.10576923051849,73.85370693681762 82.10576923051849,76.6131302487338 74.92307692253962,73.18763828417286 72.84615384601057,76.5179778272286 71.80769230751321,73.663401645259 68.08653846150264,72.04580544272903 63.846153846010566,71.85549986280967 59.951923076529056,73.7585542948218 57.35576923098415,72.52156925958116 54.759615384507924,73.663401645259 52.42307692300528,72.04580544272903 48.78846153849736,72.42641651141457 46.71153846150264,68.81060645496473 45.41346153849736,72.14095822128002 38.14423076855019,75.09069059032481 35.634615384507924,73.56824898824561 33.81730769202113,75.18584312591702 31.04807692253962,74.32947003247682 29.14423076901585,70.90397150802892 25.163461538031697,74.51977521728259 14.259615384507924,73.663401645259 14.951923076529056,70.42820704588667 22.48076923051849,70.80881863087416 30.096153846010566,68.62030035885982 32.51923076901585,70.14274827740155 35.80769230751321,68.2396880753804 41.25961538404226,68.90575949160848 46.365384615026414,67.47846314439084 53.46153846150264,70.04759533959441 56.23076923051849,67.95422878325917 58.39423076901585,69.00091252091806 61.509615384507924,67.47846314439084 67.04807692300528,67.38330999366008 69.125,69.00091252091806 69.99038461549208,75.18584312591702 78.125,75.47130068717524 79.33653846150264,76.70828266290482 78.03846153849736,74.42462262872141 73.27884615352377,73.47309632378165 72.32692307699472,75.09069059032481 69.38461538450792,72.61672200006433 64.19230769248679,72.61672200006433 60.90384615352377,74.04401219764259 69.38461538450792,70.9991243777331 71.11538461502641,73.18763828417286 77.25961538450792,72.14095822128002 79.50961538450792,73.56824898824561 79.33653846150264,75.28099565405864 80.98076923098415,74.7100803720532 83.14423076901585,76.23252051649615 86.0,72.14095822128002 82.53846153849736,69.38152456108946 78.73076923051849,68.7154534108704 75.35576923051849,70.23790120799094 74.83653846150264,73.94885957089718 70.94230769202113,69.09606554219499 69.90384615352377,69.28637156239711 71.63461538450792,72.42641651141457 77.0,72.33126375544816 82.53846153849736,75.18584312591702 85.13461538450792,73.94885957089718 85.22115384601057,71.37973578029778 80.80769230704755,67.28815683571156 74.14423076901585,69.38152456108946 73.71153846103698,71.09427723963745 70.59615384601057,67.47846314439084 69.81730769202113,69.95244239410385 71.54807692300528,73.09248558909167 75.78846153849736,72.14095822128002 83.23076923098415,74.900385496323 84.70192307652906,74.04401219764259 84.96153846150264,71.28458294109441 79.76923076948151,67.09785049664788 73.27884615352377,69.76213648007251 70.07692307699472,68.04938188847154 69.47115384601057,70.71366574591957 71.28846153849736,72.9021801763447 78.55769230751321,72.71187473321334 84.09615384647623,75.18584312591702 84.96153846150264,71.47488861216698 82.27884615352377,68.90575949160848 80.20192307699472,63.291717337211594 73.79807692300528,70.9991243777331 71.02884615352377,68.52514729928225 70.50961538450792,69.28637156239711 71.28846153849736,71.85549986280967 82.19230769248679,72.9021801763447 83.05769230751321,75.56645319226664 83.83653846150264,72.33126375544816 78.55769230751321,68.42999423248693 72.58653846150264,70.90397150802892 63.5,68.2396880753804 55.365384615026414,68.14453498565126 53.28846153849736,70.14274827740155 43.596153846010566,68.42999423248693 40.653846153989434,70.23790120799094 27.240384615026414,69.00091252091806 24.298076923005283,71.09427723963745 15.73076923051849,70.3330541306641 14.0,72.42641651141457 15.298076923005283,73.85370693681762 23.69230769202113,74.04401219764259 29.14423076901585,71.09427723963745 28.10576923051849,71.18943009432405 31.653846153989434,73.663401645259 29.576923076529056,72.04580544272903 32.69230769202113,73.37794365151785 48.78846153849736,71.76034706167411 60.55769230751321,73.28279097157065 69.0384615380317,70.90397150802892 71.375,72.52156925958116 76.74038461549208,72.42641651141457 82.625,75.56645319226664 84.52884615352377,73.09248558909167 83.31730769248679,68.2396880753804 78.125,67.57361628708895 73.10576923098415,69.19121855602134 75.78846153849736,69.66698351176456" stroke="#4dd2ff" stroke-linecap="round" stroke-linejoin="round" stroke-width="0.5"><title>2021-11-16 6.7km</title></polyline><polyline fill="none" points="178.87128712888807,72.25353483506478 176.01980198035017,72.54747189674526 174.41584158409387,74.5070505089825 171.2970297029242,71.95959770306945 165.59405940584838,71.5676814179169 163.09900990128517,72.74342989863362 158.55445544514805,70.78384847193956 148.48514851462096,71.07778588531073 145.00990098994225,72.64545090147294 137.25742574268952,73.23332476674113 134.31683168327436,76.07471114734653 128.70297029661015,72.25353483506478 126.02970297029242,73.52726159361191 115.51485148491338,73.3313037166372 114.0,72.05757675506175 114.35643564350903,70.09799423383083 124.6930693066679,69.60809811484069 130.66336633637547,67.35457345074974 133.24752475274727,69.02022251416929 137.97029702970758,66.2767993232701 141.17821782175452,67.84447046858259 147.50495049497113,66.0808402892435 154.63366336608306,68.92224322014954 155.07920792046934,66.96265569573734 158.82178217824548,66.37477882858366 160.06930693099275,67.74649108049925 164.34653465356678,65.78690167982131 166.1287128715776,66.86467623733915 173.079207920935,65.98286076076329 177.62376237567514,67.55053228128236 181.0990099008195,64.51316689234227 183.86138613848016,64.31720757717267 185.91089108912274,66.2767993232701 184.9306930694729,72.35151386330836 181.27722772257403,75.68279617547523 178.42574257403612,73.6252405202249 175.03960396070033,75.19290228444152 170.76237623766065,70.29395262664184 173.079207920935,68.43234663200565 177.98019801964983,67.94244984886609 182.34653465356678,63.92528885253705 184.30693069286644,63.92528885253705 185.73267326736823,64.21922790759709 186.0,66.2767993232701 182.88118811883032,74.70300819829572 178.33663366315886,73.42928265908267 174.86138613848016,74.70300819829572 173.6138613857329,72.44949288398493 173.1683168313466,73.42928265908267 170.40594059415162,71.95959770306945 163.09900990128517,73.3313037166372 148.3960396037437,72.05757675506175 139.66336633637547,74.21311391645577 136.18811881169677,72.25353483506478 132.35643564350903,75.58481741277501 129.59405940584838,72.64545090147294 115.51485148491338,73.91917725349776 114.08910891087726,70.68586931831669 125.31683168327436,67.74649108049925 132.80198019789532,68.92224322014954 138.86138613848016,66.2767993232701 146.25742574268952,66.2767993232701 153.74257425731048,68.53032596537378 157.84158415859565,66.1788198100403 159.98019801964983,67.55053228128236 168.53465346479788,66.1788198100403 170.40594059415162,66.2767993232701 172.81188118783757,70.39193181123119 177.53465346526355,70.68586931831669 178.51485148491338,72.64545090147294" stroke="#4dd2ff" stroke-linecap="round" stroke-linejoin="round" stroke-width="0.5"><title>2021-11-03 4.0km</title></polyline><polyline fill="none" points="80.20869565196335,155.93756788980681 75.5130434781313,156.45387472840957 64.40000000037253,152.49551914108451 56.57391304243356,154.73285145265982 55.94782608747482,149.91397897480056 52.66086956486106,148.88136204367038 53.75652173906565,144.40668296057265 63.30434782616794,150.25818450876977 70.81739130429924,146.1277144756168 79.73913043458015,148.36505339236464 80.5217391308397,156.45387472840957 77.70434782560915,158.1748966309242 67.21739130467176,152.66762170870788 56.57391304243356,154.56074904941488 53.28695652168244,144.9229925593827 58.139130434952676,145.95561138552148 61.42608695663512,149.7418761870358 70.81739130429924,146.1277144756168 77.39130434766412,146.9882297180593 80.83478260785341,155.76546558283735 76.76521739084274,157.48648803459946 63.773913042619824,152.66762170870788 57.513043478131294,155.07705621758942 56.26086956448853,150.6023899880238 52.504347826354206,148.1929504808504 52.97391304373741,144.9229925593827 56.10434782598168,144.0624764926033 63.61739130411297,149.91397897480056 70.81739130429924,146.29981755116023 79.11304347775877,146.9882297180593 80.83478260785341,155.2491585795069 76.60869565233588,157.14228365407325 63.773913042619824,152.3234165593749 56.41739130485803,154.90495384158567 55.63478260859847,149.91397897480056 52.504347826354206,149.39767057087738 54.22608695644885,143.37406339216977 63.147826086729765,150.25818450876977 70.50434782542288,146.47192061378155 78.64347826037556,146.29981755116023 80.67826086934656,155.76546558283735 76.29565217345953,157.65859020443168 65.65217391308397,153.0118268035585 57.04347826074809,155.07705621758942 52.817391304299235,149.05346489942167 54.22608695644885,144.40668296057265 63.460869564674795,149.2255677417852 69.5652173915878,146.81612669676542 61.58260869514197,149.39767057087738 56.41739130485803,143.54616668797098 45.30434782616794,145.78350828250404 40.60869565140456,144.23457973310724 34.66086956486106,147.3324357190868 32.469565217383206,144.9229925593827 26.208695651963353,144.7508893731283 25.26956521719694,150.25818450876977 20.260869565419853,145.95561138552148 14.0,148.020847555832 15.721739130094647,153.87233929987997 34.66086956486106,153.35603184322827 39.04347826074809,157.65859020443168 43.73913043458015,153.18392932997085 48.27826086897403,154.56074904941488 50.31304347794503,150.0860817488283 51.878260869532824,158.34699874545913 53.44347826112062,150.43028725497425 55.165217391215265,150.77449270675424 57.35652173962444,156.10967018280644 65.965217391029,155.5933632623637 77.5478260871023,161.44483446271624 81.93043478298932,158.51910084695555 78.79999999981374,147.3324357190868 86.0,141.9972365325084 83.65217391308397,140.1040981648257 60.0173913044855,138.55516553740017 53.75652173906565,139.93199459440075 45.930434782058,145.78350828250404 41.234782609157264,144.0624764926033 33.878260869532824,147.50453869858757 32.469565217383206,144.57878617360257 25.113043478690088,144.0624764926033 24.486956520937383,149.5697733858833 19.63478260859847,145.61140516528394 14.469565217383206,149.05346489942167 15.565217391587794,153.70023682771716 34.191304348409176,154.04444175760727 39.66956521756947,156.97018144349568 43.73913043458015,153.87233929987997 48.27826086897403,154.04444175760727 50.93913043476641,149.7418761870358 54.06956521701068,150.43028725497425 53.130434782244265,145.78350828250404 55.94782608747482,141.8251331129577 69.72173913009465,142.85775342269335 78.48695652093738,146.29981755116023 80.83478260785341,157.14228365407325 75.82608695607632,158.8633050074568 64.0869565224275,154.56074904941488 57.04347826074809,155.07705621758942 65.965217391029,153.87233929987997 78.48695652093738,158.51910084695555" stroke="#4dd2ff" stroke-linecap="round" stroke-linejoin="round" stroke-width="0.5"><title>2021-11-01 4.9km</title></polyline><polyline fill="none" points="157.27461140044034,139.7452091597952 140.11398963816464,148.3592705936171 124.07253886200488,144.66753174783662 128.17616580426693,155.74274033587426 172.5699481870979,159.84466338763013 177.41968911886215,165.17715846188366 178.16580310836434,153.69177758181468 165.85492227971554,143.84714497625828 137.50259067490697,147.94907752005383 126.31088083051145,143.43695154273883 125.93782383389771,147.5388844134286 131.90673575364053,157.79370227036998 167.72020725347102,156.9733175947331 173.3160621766001,166.4077334627509 173.3160621766001,155.74274033587426 160.6321243532002,145.8981116572395 122.2072538882494,145.07772508310154 130.78756476938725,157.79370227036998 171.07772020809352,157.79370227036998 175.55440414510667,164.35677496390417 180.03108808211982,155.3325478504412 168.0932642482221,143.84714497625828 137.12953368015587,151.23062119819224 122.95336787588894,145.48791838623583 128.17616580426693,155.74274033587426 171.45077720098197,157.79370227036998 175.55440414510667,164.76696672849357 180.40414507687092,163.53639133600518 178.53886010311544,155.74274033587426 162.49740932509303,142.61656457511708 141.60621761903167,150.820428352803 123.69948186725378,140.5655965860933 128.17616580426693,155.3325478504412 139.36787564866245,155.3325478504412 143.0984455961734,162.30581564782187 136.75647668354213,166.4077334627509 114.0,156.5631252080202 117.3575129546225,148.76946363598108 133.02590673603117,135.64327007066458 133.02590673603117,140.5655965860933 144.59067357704043,146.71849810006097 178.91191709972918,137.69424002431333 177.04663212411106,162.7160075767897 170.70466321147978,168.04849967267364 127.80310880951583,168.4586911429651 117.3575129546225,155.74274033587426 181.1502590663731,134.82288186019287 184.13471502438188,155.74274033587426 179.28497409261763,166.81792506435886 171.45077720098197,170.0994566977024 143.84455958753824,165.17715846188366 138.24870466440916,170.91983927972615 120.34196891263127,154.10197019856423 129.6683937832713,145.8981116572395 177.41968911886215,136.05346412677318 186.0,158.20389455975965 174.43523315899074,170.0994566977024 147.2020725402981,163.12619947222993 136.0103626959026,165.58735016174614 123.69948186725378,154.92235533194616 131.90673575364053,141.3859838792123 175.18134715035558,135.64327007066458 181.5233160611242,145.8981116572395 172.1968911923468,168.4586911429651 117.7305699493736,158.6140868156217 125.19170984625816,150.41023547481745 165.10880829021335,140.5655965860933 161.75129533745348,129.0801607198082" stroke="#4dd2ff" stroke-linecap="round" stroke-linejoin="round" stroke-width="0.5"><title>2021-10-20 3.7km</title></polyline><polyline fill="none" points="37.48442731332034,204.80649248382542 38.74169945484027,202.042047970579 39.08459185762331,203.42427083314396 38.3988070525229,198.398000067682 33.25542101683095,194.0 25.71178816445172,197.518401036039 24.568813489750028,207.57093214837369 29.026414720807225,205.68608744838275 29.14071218809113,208.45052557031158 22.511459075380117,227.2988380906172 20.454104661010206,247.6547624754021 27.426250176504254,250.92173820640892 35.88426276855171,252.05261284380686 85.37506618024781,245.01604636525735 75.20259157568216,248.9112924039364 45.82814243808389,251.67565472144634 41.942028543911874,254.94262211944442 40.799053869675845,266.0 39.427484259940684,255.1939270234434 21.25418693339452,252.30391820822842 18.96823758352548,253.05783406214323 14.624933820217848,262.10479618574027 22.968648944981396,224.7857427765848 22.39716160763055,232.82763367844746 21.368484400678426,236.72290983540006 21.7113768029958,228.42972967482638 24.34021855518222,210.33536696457304 26.626167903654277,208.70183788682334 37.48442731332034,212.5971736627398 40.22756653279066,206.9426508321194 39.08459185762331,206.06305656861514" stroke="#4dd2ff" stroke-linecap="round" stroke-linejoin="round" stroke-width="0.5"><title>2021-10-19 3.1km</title></polyline></svg>