<?xml version="1.0" encoding="utf-8" ?>
<svg baseProfile="full" height="300mm" version="1.1" viewBox="0,0,200,300" width="200mm" xmlns="http://www.w3.org/2000/svg" xmlns:ev="http://www.w3.org/2001/xml-events" xmlns:xlink="http://www.w3.org/1999/xlink"><defs /><rect fill="#222222" height="300" width="200" x="0" y="0" /><text fill="#FFFFFF" style="font-size:12px; font-family:Arial; font-weight:bold;" x="10" y="20">Over 3km Runs</text><text fill="#FFFFFF" style="font-size:4px; font-family:Arial" x="10" y="280">ATHLETE</text><text fill="#FFFFFF" style="font-size:9px; font-family:Arial" x="10" y="290">LinJincan</text><text fill="#FFFFFF" style="font-size:4px; font-family:Arial" x="120" y="280">STATISTICS</text><text fill="#FFFFFF" style="font-size:3px; font-family:Arial" x="120" y="285">Number: 6</text><text fill="#FFFFFF" style="font-size:3px; font-family:Arial" x="120" y="290">Weekly: 1.5</text><text fill="#FFFFFF" style="font-size:3px; font-family:Arial" x="141" y="285">Total: 26.1 km</text><text fill="#FFFFFF" style="font-size:3px; font-family:Arial" x="141" y="290">Avg: 4.3 km</text><text fill="#FFFFFF" style="font-size:3px; font-family:Arial" x="167" y="285">Min: 3.1 km</text><text fill="#FFFFFF" style="font-size:3px; font-family:Arial" x="167" y="290">Max: 6.7 km</text><polyline fill="none" points="69.0022271713242,74.6724755836185 72.85077951010317,77.84620887751225 78.78396436478943,74.6724755836185 82.47216035611928,75.55406862241216 81.02895322907716,70.61714307428338 73.33184855151922,66.73812240629923 61.78619153704494,69.73554806574248 58.25835189316422,65.50388712936547 55.37193763907999,66.56180312298238 59.22048997692764,73.61456347245257 73.65256124641746,75.90670573944226 71.8886414244771,78.72780065005645 63.38975501060486,77.84620887751225 59.06013363040984,80.84361947013531 55.211581291630864,75.2014314486878 61.144766146317124,73.61456347245257 75.09576837252825,73.79088219278492 75.8975501107052,79.25675554503687 77.9821826275438,79.60939207149204 85.19821826182306,72.2040132030379 82.95322939753532,69.20659089181572 73.81291759386659,66.73812240629923 75.41648106835783,61.62485748506151 80.38752783928066,61.62485748506151 71.0868596881628,65.32756774767768 64.83296213764697,71.1460999106057 50.240534520708025,63.211734071723185 34.84632516745478,66.20916451478843 28.111358574591577,64.974928942509 25.545657015405595,68.85395270551089 14.0,67.97235699358862 16.24498886335641,72.38033203629311 40.29844097979367,75.7303871876793 42.222717149183154,73.43824473791756 48.957683742046356,74.6724755836185 53.126948774792254,71.49873773101717 75.57683741580695,73.2619259894127 75.41648106835783,80.49098314053845 84.07572382967919,76.43566130916588 86.0,72.5566508549964 83.91536748223007,67.61971861042548 73.49220489896834,64.79860951832961 67.07795100193471,67.61971861042548 63.87082405295223,72.73296965938061 60.02227171510458,69.55922902189195 59.06013363040984,64.09333168261219 69.80400890763849,59.15638052998111 72.69042316265404,60.7432588894153 64.3518930952996,72.90928845049348 59.22048997692764,67.61971861042548 61.30512249469757,63.211734071723185 66.59688195958734,69.38290996360593 69.96436525601894,65.32756774767768 82.15144766122103,62.85909492871724 83.59465478733182,69.38290996360593 75.73719376325607,78.72780065005645 64.67260579019785,73.61456347245257 58.73942093458027,78.90411896270234 54.57015590183437,73.61456347245257 61.46547884121537,65.68020649638493 83.4342984398827,65.1512483516708 81.67037861794233,71.85137549543288 75.73719376325607,78.37516398343723 65.47438752744347,74.49615693325177 62.427616925910115,79.25675554503687 57.13585746102035,77.14093520585448 57.93763919733465,71.49873773101717 66.75723830703646,68.50131446297746 74.29398663621396,59.50902026402764 76.69933184795082,62.68277533608489 74.77505567856133,64.974928942509" stroke="#4dd2ff" stroke-linecap="round" stroke-linejoin="round" stroke-width="0.5"><title>2021-11-23 3.6km</title></polyline><polyline fill="none" points="179.7692307694815,68.52514729928225 184.00961538450792,68.52514729928225 184.09615384647623,72.04580544272903 182.1057692305185,73.85370693681762 182.1057692305185,76.6131302487338 174.92307692253962,73.18763828417286 172.84615384601057,76.5179778272286 171.8076923075132,73.663401645259 168.08653846150264,72.04580544272903 163.84615384601057,71.85549986280967 159.95192307652906,73.7585542948218 157.35576923098415,72.52156925958116 154.75961538450792,73.663401645259 152.42307692300528,72.04580544272903 148.78846153849736,72.42641651141457 146.71153846150264,68.81060645496473 145.41346153849736,72.14095822128002 138.1442307685502,75.09069059032481 135.63461538450792,73.56824898824561 133.81730769202113,75.18584312591702 131.04807692253962,74.32947003247682 129.14423076901585,70.90397150802892 125.1634615380317,74.51977521728259 114.25961538450792,73.663401645259 114.95192307652906,70.42820704588667 122.48076923051849,70.80881863087416 130.09615384601057,68.62030035885982 132.51923076901585,70.14274827740155 135.8076923075132,68.2396880753804 141.25961538404226,68.90575949160848 146.36538461502641,67.47846314439084 153.46153846150264,70.04759533959441 156.2307692305185,67.95422878325917 158.39423076901585,69.00091252091806 161.50961538450792,67.47846314439084 167.04807692300528,67.38330999366008 169.125,69.00091252091806 169.99038461549208,75.18584312591702 178.125,75.47130068717524 179.33653846150264,76.70828266290482 178.03846153849736,74.42462262872141 173.27884615352377,73.47309632378165 172.32692307699472,75.09069059032481 169.38461538450792,72.61672200006433 164.1923076924868,72.61672200006433 160.90384615352377,74.04401219764259 169.38461538450792,70.9991243777331 171.11538461502641,73.18763828417286 177.25961538450792,72.14095822128002 179.50961538450792,73.56824898824561 179.33653846150264,75.28099565405864 180.98076923098415,74.7100803720532 183.14423076901585,76.23252051649615 186.0,72.14095822128002 182.53846153849736,69.38152456108946 178.7307692305185,68.7154534108704 175.3557692305185,70.23790120799094 174.83653846150264,73.94885957089718 170.94230769202113,69.09606554219499 169.90384615352377,69.28637156239711 171.63461538450792,72.42641651141457 177.0,72.33126375544816 182.53846153849736,75.18584312591702 185.13461538450792,73.94885957089718 185.22115384601057,71.37973578029778 180.80769230704755,67.28815683571156 174.14423076901585,69.38152456108946 173.71153846103698,71.09427723963745 170.59615384601057,67.47846314439084 169.81730769202113,69.95244239410385 171.54807692300528,73.09248558909167 175.78846153849736,72.14095822128002 183.23076923098415,74.900385496323 184.70192307652906,74.04401219764259 184.96153846150264,71.28458294109441 179.7692307694815,67.09785049664788 173.27884615352377,69.76213648007251 170.07692307699472,68.04938188847154 169.47115384601057,70.71366574591957 171.28846153849736,72.9021801763447 178.5576923075132,72.71187473321334 184.09615384647623,75.18584312591702 184.96153846150264,71.47488861216698 182.27884615352377,68.90575949160848 180.20192307699472,63.291717337211594 173.79807692300528,70.9991243777331 171.02884615352377,68.52514729928225 170.50961538450792,69.28637156239711 171.28846153849736,71.85549986280967 182.1923076924868,72.9021801763447 183.0576923075132,75.56645319226664 183.83653846150264,72.33126375544816 178.5576923075132,68.42999423248693 172.58653846150264,70.90397150802892 163.5,68.2396880753804 155.36538461502641,68.14453498565126 153.28846153849736,70.14274827740155 143.59615384601057,68.42999423248693 140.65384615398943,70.23790120799094 127.24038461502641,69.00091252091806 124.29807692300528,71.09427723963745 115.73076923051849,70.3330541306641 114.0,72.42641651141457 115.29807692300528,73.85370693681762 123.69230769202113,74.04401219764259 129.14423076901585,71.09427723963745 128.1057692305185,71.18943009432405 131.65384615398943,73.663401645259 129.57692307652906,72.04580544272903 132.69230769202113,73.37794365151785 148.78846153849736,71.76034706167411 160.5576923075132,73.28279097157065 169.0384615380317,70.90397150802892 171.375,72.52156925958116 176.74038461549208,72.42641651141457 182.625,75.56645319226664 184.52884615352377,73.09248558909167 183.3173076924868,68.2396880753804 178.125,67.57361628708895 173.10576923098415,69.19121855602134 175.78846153849736,69.66698351176456" stroke="#4dd2ff" stroke-linecap="round" stroke-linejoin="round" stroke-width="0.5"><title>2021-11-16 6.7km</title></polyline><polyline fill="none" points="78.87128712888807,152.25353483506478 76.01980198035017,152.54747189674526 74.41584158409387,154.5070505089825 71.29702970292419,151.95959770306945 65.59405940584838,151.5676814179169 63.09900990128517,152.74342989863362 58.55445544514805,150.78384847193956 48.48514851462096,151.07778588531073 45.00990098994225,152.64545090147294 37.25742574268952,153.23332476674113 34.31683168327436,156.07471114734653 28.702970296610147,152.25353483506478 26.02970297029242,153.5272615936119 15.514851484913379,153.3313037166372 14.0,152.05757675506175 14.35643564350903,150.09799423383083 24.693069306667894,149.6080981148407 30.663366336375475,147.35457345074974 33.24752475274727,149.0202225141693 37.97029702970758,146.2767993232701 41.178217821754515,147.84447046858259 47.504950494971126,146.0808402892435 54.633663366083056,148.92224322014954 55.079207920469344,146.96265569573734 58.821782178245485,146.37477882858366 60.06930693099275,147.74649108049925 64.34653465356678,145.7869016798213 66.12871287157759,146.86467623733915 73.079207920935,145.9828607607633 77.62376237567514,147.55053228128236 81.09900990081951,144.51316689234227 83.86138613848016,144.31720757717267 85.91089108912274,146.2767993232701 84.93069306947291,152.35151386330836 81.27722772257403,155.68279617547523 78.42574257403612,153.6252405202249 75.03960396070033,155.19290228444152 70.76237623766065,150.29395262664184 73.079207920935,148.43234663200565 77.98019801964983,147.9424498488661 82.34653465356678,143.92528885253705 84.30693069286644,143.92528885253705 85.73267326736823,144.2192279075971 86.0,146.2767993232701 82.88118811883032,154.70300819829572 78.33663366315886,153.42928265908267 74.86138613848016,154.70300819829572 73.61386138573289,152.44949288398493 73.1683168313466,153.42928265908267 70.40594059415162,151.95959770306945 63.09900990128517,153.3313037166372 48.3960396037437,152.05757675506175 39.663366336375475,154.21311391645577 36.18811881169677,152.25353483506478 32.35643564350903,155.584817412775 29.594059405848384,152.64545090147294 15.514851484913379,153.91917725349776 14.089108910877258,150.6858693183167 25.31683168327436,147.74649108049925 32.80198019789532,148.92224322014954 38.86138613848016,146.2767993232701 46.25742574268952,146.2767993232701 53.74257425731048,148.53032596537378 57.84158415859565,146.1788198100403 59.98019801964983,147.55053228128236 68.53465346479788,146.1788198100403 70.40594059415162,146.2767993232701 72.81188118783757,150.3919318112312 77.53465346526355,150.6858693183167 78.51485148491338,152.64545090147294" stroke="#4dd2ff" stroke-linecap="round" stroke-linejoin="round" stroke-width="0.5"><title>2021-11-03 4.0km</title></polyline><polyline fill="none" points="180.20869565196335,155.93756788980681 175.5130434781313,156.45387472840957 164.40000000037253,152.49551914108451 156.57391304243356,154.73285145265982 155.94782608747482,149.91397897480056 152.66086956486106,148.88136204367038 153.75652173906565,144.40668296057265 163.30434782616794,150.25818450876977 170.81739130429924,146.1277144756168 179.73913043458015,148.36505339236464 180.5217391308397,156.45387472840957 177.70434782560915,158.1748966309242 167.21739130467176,152.66762170870788 156.57391304243356,154.56074904941488 153.28695652168244,144.9229925593827 158.13913043495268,145.95561138552148 161.42608695663512,149.7418761870358 170.81739130429924,146.1277144756168 177.39130434766412,146.9882297180593 180.8347826078534,155.76546558283735 176.76521739084274,157.48648803459946 163.77391304261982,152.66762170870788 157.5130434781313,155.07705621758942 156.26086956448853,150.6023899880238 152.5043478263542,148.1929504808504 152.9739130437374,144.9229925593827 156.10434782598168,144.0624764926033 163.61739130411297,149.91397897480056 170.81739130429924,146.29981755116023 179.11304347775877,146.9882297180593 180.8347826078534,155.2491585795069 176.60869565233588,157.14228365407325 163.77391304261982,152.3234165593749 156.41739130485803,154.90495384158567 155.63478260859847,149.91397897480056 152.5043478263542,149.39767057087738 154.22608695644885,143.37406339216977 163.14782608672976,150.25818450876977 170.50434782542288,146.47192061378155 178.64347826037556,146.29981755116023 180.67826086934656,155.76546558283735 176.29565217345953,157.65859020443168 165.65217391308397,153.0118268035585 157.0434782607481,155.07705621758942 152.81739130429924,149.05346489942167 154.22608695644885,144.40668296057265 163.4608695646748,149.2255677417852 169.5652173915878,146.81612669676542 161.58260869514197,149.39767057087738 156.41739130485803,143.54616668797098 145.30434782616794,145.78350828250404 140.60869565140456,144.23457973310724 134.66086956486106,147.3324357190868 132.4695652173832,144.9229925593827 126.20869565196335,144.7508893731283 125.26956521719694,150.25818450876977 120.26086956541985,145.95561138552148 114.0,148.020847555832 115.72173913009465,153.87233929987997 134.66086956486106,153.35603184322827 139.0434782607481,157.65859020443168 143.73913043458015,153.18392932997085 148.27826086897403,154.56074904941488 150.31304347794503,150.0860817488283 151.87826086953282,158.34699874545913 153.44347826112062,150.43028725497425 155.16521739121526,150.77449270675424 157.35652173962444,156.10967018280644 165.965217391029,155.5933632623637 177.5478260871023,161.44483446271624 181.93043478298932,158.51910084695555 178.79999999981374,147.3324357190868 186.0,141.9972365325084 183.65217391308397,140.1040981648257 160.0173913044855,138.55516553740017 153.75652173906565,139.93199459440075 145.930434782058,145.78350828250404 141.23478260915726,144.0624764926033 133.87826086953282,147.50453869858757 132.4695652173832,144.57878617360257 125.11304347869009,144.0624764926033 124.48695652093738,149.5697733858833 119.63478260859847,145.61140516528394 114.4695652173832,149.05346489942167 115.5652173915878,153.70023682771716 134.19130434840918,154.04444175760727 139.66956521756947,156.97018144349568 143.73913043458015,153.87233929987997 148.27826086897403,154.04444175760727 150.9391304347664,149.7418761870358 154.06956521701068,150.43028725497425 153.13043478224427,145.78350828250404 155.94782608747482,141.8251331129577 169.72173913009465,142.85775342269335 178.48695652093738,146.29981755116023 180.8347826078534,157.14228365407325 175.82608695607632,158.8633050074568 164.0869565224275,154.56074904941488 157.0434782607481,155.07705621758942 165.965217391029,153.87233929987997 178.48695652093738,158.51910084695555" stroke="#4dd2ff" stroke-linecap="round" stroke-linejoin="round" stroke-width="0.5"><title>2021-11-01 4.9km</title></polyline><polyline fill="none" points="57.274611400440335,219.7452091597952 40.11398963816464,228.3592705936171 24.072538862004876,224.66753174783662 28.17616580426693,235.74274033587426 72.5699481870979,239.84466338763013 77.41968911886215,245.17715846188366 78.16580310836434,233.69177758181468 65.85492227971554,223.84714497625828 37.50259067490697,227.94907752005383 26.31088083051145,223.43695154273883 25.93782383389771,227.5388844134286 31.906735753640532,237.79370227036998 67.72020725347102,236.9733175947331 73.3160621766001,246.4077334627509 73.3160621766001,235.74274033587426 60.6321243532002,225.8981116572395 22.207253888249397,225.07772508310154 30.787564769387245,237.79370227036998 71.07772020809352,237.79370227036998 75.55440414510667,244.35677496390417 80.03108808211982,235.3325478504412 68.09326424822211,223.84714497625828 37.12953368015587,231.23062119819224 22.953367875888944,225.48791838623583 28.17616580426693,235.74274033587426 71.45077720098197,237.79370227036998 75.55440414510667,244.76696672849357 80.40414507687092,243.53639133600518 78.53886010311544,235.74274033587426 62.49740932509303,222.61656457511708 41.60621761903167,230.820428352803 23.69948186725378,220.5655965860933 28.17616580426693,235.3325478504412 39.36787564866245,235.3325478504412 43.098445596173406,242.30581564782187 36.75647668354213,246.4077334627509 14.0,236.5631252080202 17.357512954622507,228.76946363598108 33.025906736031175,215.64327007066458 33.025906736031175,220.5655965860933 44.590673577040434,226.71849810006097 78.91191709972918,217.69424002431333 77.04663212411106,242.7160075767897 70.70466321147978,248.04849967267364 27.803108809515834,248.4586911429651 17.357512954622507,235.74274033587426 81.15025906637311,214.82288186019287 84.13471502438188,235.74274033587426 79.28497409261763,246.81792506435886 71.45077720098197,250.0994566977024 43.84455958753824,245.17715846188366 38.24870466440916,250.91983927972615 20.341968912631273,234.10197019856423 29.668393783271313,225.8981116572395 77.41968911886215,216.05346412677318 86.0,238.20389455975965 74.43523315899074,250.0994566977024 47.202072540298104,243.12619947222993 36.010362695902586,245.58735016174614 23.69948186725378,234.92235533194616 31.906735753640532,221.3859838792123 75.18134715035558,215.64327007066458 81.5233160611242,225.8981116572395 72.19689119234681,248.4586911429651 17.730569949373603,238.6140868156217 25.191709846258163,230.41023547481745 65.10880829021335,220.5655965860933 61.751295337453485,209.0801607198082" stroke="#4dd2ff" stroke-linecap="round" stroke-linejoin="round" stroke-width="0.5"><title>2021-10-20 3.7km</title></polyline><polyline fill="none" points="137.48442731332034,204.80649248382542 138.74169945484027,202.042047970579 139.0845918576233,203.42427083314396 138.3988070525229,198.398000067682 133.25542101683095,194.0 125.71178816445172,197.518401036039 124.56881348975003,207.57093214837369 129.02641472080722,205.68608744838275 129.14071218809113,208.45052557031158 122.51145907538012,227.2988380906172 120.4541046610102,247.6547624754021 127.42625017650425,250.92173820640892 135.8842627685517,252.05261284380686 185.3750661802478,245.01604636525735 175.20259157568216,248.9112924039364 145.8281424380839,251.67565472144634 141.94202854391187,254.94262211944442 140.79905386967584,266.0 139.42748425994068,255.1939270234434 121.25418693339452,252.30391820822842 118.96823758352548,253.05783406214323 114.62493382021785,262.10479618574027 122.9686489449814,224.7857427765848 122.39716160763055,232.82763367844746 121.36848440067843,236.72290983540006 121.7113768029958,228.42972967482638 124.34021855518222,210.33536696457304 126.62616790365428,208.70183788682334 137.48442731332034,212.5971736627398 140.22756653279066,206.9426508321194 139.0845918576233,206.06305656861514" stroke="#4dd2ff" stroke-linecap="round" stroke-linejoin="round" stroke-width="0.5"><title>2021-10-19 3.1km</title></polyline></svg>