<?xml version="1.0" encoding="utf-8" ?>
<svg baseProfile="full" height="300mm" version="1.1" viewBox="0,0,200,300" width="200mm" xmlns="http://www.w3.org/2000/svg" xmlns:ev="http://www.w3.org/2001/xml-events" xmlns:xlink="http://www.w3.org/1999/xlink"><defs /><rect fill="#222222" height="300" width="200" x="0" y="0" /><text fill="#FFFFFF" style="font-size:12px; font-family:Arial; font-weight:bold;" x="10" y="20">Over 3km Runs</text><text fill="#FFFFFF" style="font-size:4px; font-family:Arial" x="10" y="280">ATHLETE</text><text fill="#FFFFFF" style="font-size:9px; font-family:Arial" x="10" y="290">LinJincan</text><text fill="#FFFFFF" style="font-size:4px; font-family:Arial" x="120" y="280">STATISTICS</text><text fill="#FFFFFF" style="font-size:3px; font-family:Arial" x="120" y="285">Number: 10</text><text fill="#FFFFFF" style="font-size:3px; font-family:Arial" x="120" y="290">Weekly: 1.7</text><text fill="#FFFFFF" style="font-size:3px; font-family:Arial" x="141" y="285">Total: 45.4 km</text><text fill="#FFFFFF" style="font-size:3px; font-family:Arial" x="141" y="290">Avg: 4.5 km</text><text fill="#FFFFFF" style="font-size:3px; font-family:Arial" x="167" y="285">Min: 3.1 km</text><text fill="#FFFFFF" style="font-size:3px; font-family:Arial" x="167" y="290">Max: 6.7 km</text><polyline fill="none" points="45.74968866747804,60.81337735999841 43.059775840491056,63.10557689826237 38.21793275186792,62.58798394969199 36.06600249093026,60.000014870835 33.1743462018203,60.29578313120874 29.74470734759234,59.03876737202518 27.054794520838186,61.33097129967064 23.82689912826754,60.1478990126634 17.64009962626733,62.73586767894449 15.555417185882106,61.626739135419484 13.470734745031223,62.144332621013746 14.075965130934492,63.47528597043129 21.136986301280558,63.2534605449182 22.81818181835115,62.07039071206236 27.8617683686316,61.626739135419484 34.25031133252196,62.95769322826527 39.22665006224997,61.47885522944853 47.49813200486824,61.626739135419484 49.65006226650439,63.32740235916572 55.836861768504605,60.36972518154653 59.33374844305217,61.33097129967064 62.56164383538999,60.1478990126634 64.71357409702614,60.887319369008765 64.84806973813102,65.24988746270537 62.696139476960525,59.926072790811304 58.056039850460365,61.5527971854317 56.03860523039475,60.59155129734427 54.96264009946026,57.929634403728414 49.31382316327654,59.704246515757404 45.21170610212721,58.66905653011054 42.65628891647793,61.1091453609406 40.840597758535296,59.926072790811304 35.191780821885914,59.55636230297387 31.89663760899566,61.626739135419484 29.54296388523653,60.29578313120874 26.920298879034817,61.77462301799096 22.414694894338027,59.926072790811304 20.599003735929728,61.18308734649327 14.277708592591807,61.25702932616696 13.0,61.92250687693013 13.336239103227854,63.32740235916572 21.405977583955973,64.14076192828361 24.364881693851203,62.21827452379512 26.78580323792994,63.10557689826237 30.34993773372844,62.07039071206236 34.586550435982645,63.2534605449182 41.31133250286803,61.5527971854317 49.381070983596146,63.179518724558875 52.877957658842206,62.440100197156426 54.42465753434226,60.887319369008765 64.6463262764737,62.21827452379512 65.2515566626098,64.73229571181582 64.10834371089004,61.40491326758638 60.880448318552226,58.89088305277983 56.912826899206266,60.51760926475981 53.75217932718806,58.66905653011054 48.17061021155678,59.48242018755991 44.60647571599111,58.89088305277983 43.86674968875013,60.51760926475981 42.45454545458779,60.73943534505088 36.200498132035136,59.33453593932791 29.408468243898824,61.1091453609406 25.508094645338133,60.221841074933764 17.03486924036406,61.77462301799096 14.14321295148693,61.33097129967064 13.067247820552438,62.809809534519445 20.867995018837973,63.32740235916572 25.10460772109218,62.36615831189556 26.651307596592233,63.32740235916572 29.61021170625463,62.51404207648011 35.32627646322362,63.697111342684366 41.10958904097788,61.700681079761125 53.01245329994708,62.66192581731593 54.35740971332416,60.66549332404975 57.85429638857022,62.51404207648011 59.804483188083395,61.77462301799096 64.78082191781141,62.58798394969199 66.26027397252619,64.28864540945506 67.0,61.40491326758638 66.26027397252619,60.1478990126634 60.67870485689491,59.11270952259656 58.45952677470632,61.03520336956717 55.02988792024553,58.81694088457152 51.46575342444703,58.66905653011054 45.07721046055667,59.18665166746359 42.25280199223198,61.03520336956717 35.662515566684306,59.26059380650986 27.592777085956186,61.25702932616696 23.35616438370198,60.44366722612176 14.546699875500053,61.47885522944853 13.067247820552438,61.77462301799096 13.201743462122977,62.88375138450647 17.236612702254206,63.77105312177446 21.338729763403535,63.03163506631972 22.952677459456027,61.626739135419484 26.382316313683987,62.144332621013746 28.46699875453487,61.25702932616696 31.156911581521854,62.66192581731593 34.72104607732035,62.809809534519445 41.04234122019261,61.25702932616696 45.54794520535506,61.5527971854317 45.88418430881575,62.73586767894449 44.875466998899356,63.77105312177446 47.767123287543654,61.84856495028362 49.448318804614246,62.95769322826527 51.26400996232405,61.996448797523044 53.34869240340777,62.36615831189556 53.01245329994708,61.5527971854317 54.49190535466187,60.961261372314766 53.2814445826225,61.40491326758638 53.14694894128479,60.66549332404975 55.90410958882421,58.299345540755894 57.58530510566197,54.75011253723642 57.65255292644724,57.70780765073141 58.25778331258334,56.820500108005945 59.66998754674569,57.264153985481244" stroke="#4dd2ff" stroke-linecap="round" stroke-linejoin="round" stroke-width="0.5"><title>2021-12-06 6.7km</title></polyline><polyline fill="none" points="116.30731090856716,82.85899516841164 112.91780055779964,84.1012983523542 108.1724860672839,82.61053435323993 99.73637141706422,84.76385944278445 98.30524482484907,83.85283783444902 93.10799562046304,87.0 90.62235469603911,83.93565801379737 84.29526870884001,83.27309639484156 79.02269705198705,84.5982192097581 79.02269705198705,81.61669049737975 87.83542396361008,80.29156387626426 76.08512141508982,79.13207669492112 87.68477905914187,78.96643556357594 105.9881349527277,74.57693594356533 105.38555533485487,45.83767788915429 99.20911425119266,45.42356172623113 96.19621616182849,43.84991880028974 91.7521914797835,38.38356167502934 91.67686902731657,36.80990807415219 93.10799562046304,34.822131693712436 96.57282842276618,34.57365937833674 100.03766122600064,37.88661869050702 105.91281250026077,39.79156550584594 106.13877985719591,35.153428021410946 110.35683718184009,33.0 111.56199641758576,34.90495578548871 115.10215167282149,35.484724243404344 118.3410171191208,34.57365937833674 119.01891918946058,35.8988443724229 123.38762141903862,35.23625208676094 116.83456807443872,43.27015501563437 116.53327826596797,44.843798820802476 118.64230692805722,45.75485466973623 118.94359673699364,47.32849470729707 115.78005374316126,45.25791521486826 113.74634753260761,46.417440239398275 115.93069864762947,47.74261010979535 115.10215167282149,51.30399575212505 117.36182524031028,53.29174056381453 115.8553761956282,57.018751825089566 116.53327826596797,61.905257423291914 113.97231488954276,63.64451657625614 111.1100617046468,69.52484736545011 113.14376791520044,76.31617386237485 110.13086982537061,78.13822950882604 112.31522094039246,81.285409000644 114.12295979401097,79.04925613256637 117.13585788337514,78.22105014405679 117.81375995324925,81.285409000644 116.15666600409895,84.68103932944359 115.8553761956282,82.7761749032652 117.73843750124797,82.7761749032652 117.36182524031028,82.11361254414078 119.32020899839699,83.27309639484156 123.91487858444452,81.61669049737975 114.27360469847918,78.8007944052224 113.4450577236712,80.29156387626426 108.54909832868725,80.1259229296702 108.32313097175211,81.69951085513458 110.13086982537061,82.85899516841164" stroke="#4dd2ff" stroke-linecap="round" stroke-linejoin="round" stroke-width="0.5"><title>2021-12-04 3.9km</title></polyline><polyline fill="none" points="163.51000000024214,82.04325273586437 167.29000000003725,80.7073133746162 168.5050000003539,75.06666993943509 172.55500000016764,73.28541056450922 179.70999999996275,72.84009545424487 185.785000000149,75.36354633595329 187.0,72.39478023746051 182.95000000018626,73.58228724554647 181.59999999962747,71.05883394787088 176.06500000040978,68.83225466602016 170.3950000004843,69.72288669866975 162.9700000002049,64.37908810807858 161.21499999938533,68.0900609800592 164.32000000029802,72.69165706075728 177.68500000052154,74.02760217804462 182.54500000039116,77.59011780086439 185.10999999986961,72.84009545424487 178.09000000031665,69.12913205765653 173.49999999953434,68.38693848997355 169.5850000004284,70.61351830465719 164.589999999851,68.38693848997355 163.23999999975786,68.6838159528561 165.93999999994412,73.43384891096503 172.9600000004284,72.84009545424487 184.1650000005029,76.10573712026235 184.1650000005029,71.94946491415612 177.5500000002794,68.38693848997355 167.56000000005588,69.87132532917894 161.0800000000745,64.08220995857846 147.71499999938533,67.49630581773818 139.4799999995157,66.308794925455 138.5349999992177,70.01976394769736 133.26999999955297,67.79318342288025 135.8349999994971,61.26186517486349 133.0,51.61328489519656 136.51000000024214,46.86319622094743 137.9949999996461,39.7380404669093 153.6549999997951,37.95674726413563 159.7299999995157,38.698952972656116 161.88999999966472,40.925568321021274 172.68999999994412,39.29271732608322 177.5500000002794,41.816213714540936 183.08500000089407,41.2224501662422 182.54500000039116,40.03492250130512 176.47000000067055,43.449062494095415 173.22999999998137,40.48024546459783 163.23999999975786,41.96465457172599 162.02499999990687,44.63658797938842 160.40499999932945,55.027403638116084 165.39999999990687,71.20727247197647 170.5299999997951,73.73072556825355 181.06000000052154,74.02760217804462 184.3000000002794,76.84792760841083 184.43500000005588,72.09790336736478 174.1750000002794,64.08220995857846 164.32000000029802,62.746257699560374 163.51000000024214,66.90255046624225 166.47999999998137,73.13697220629547 182.00499999988824,75.36354633595329 183.49000000022352,71.65258797281422 177.00999999977648,68.0900609800592 164.9949999996461,66.60567271965556 163.64500000001863,67.1994281662628 165.12999999988824,71.35571098385844 173.22999999998137,73.87916387885343" stroke="#4dd2ff" stroke-linecap="round" stroke-linejoin="round" stroke-width="0.5"><title>2021-11-29 3.4km</title></polyline><polyline fill="none" points="59.27620221953839,122.34281464811647 59.54254007409327,123.14814984914847 62.27250308310613,121.24462914426113 58.210850801784545,121.97675295959925 55.214549938449636,119.414317049901 49.95437731198035,121.17141673050355 43.4956843405962,119.48752960388083 38.50184956844896,119.92680480447598 34.639950678218156,121.83032824308611 29.64611590653658,121.02499188570073 27.715166461188346,123.00172531971475 25.45129469805397,121.24462914426113 25.118372379802167,119.63395469397074 30.778051788453013,116.55902289267397 32.509247842244804,117.43757588742301 37.436498150462285,116.70544845017139 42.163995068054646,117.65721400472103 44.09494451293722,116.48581010528142 46.49198520369828,116.41259731195169 47.49075215798803,117.43757588742301 56.413070283830166,115.82689475448569 61.00739827379584,118.02327741665067 66.00123304594308,114.43584968260257 66.6670776817482,117.07151224208064 65.66831072792411,119.19467935338616 64.33662145514973,120.07322982448386 60.807644883170724,120.73214212583844 60.807644883170724,120.07322982448386 60.607891492312774,121.46426635008538 57.212083847261965,122.04996530892095 52.884093711618334,120.14644232572755 49.82120838481933,121.53747874044348 45.69297164026648,120.36607979447581 38.50184956844896,120.07322982448386 32.37607891508378,121.83032824308611 30.311960542807356,121.09820431092521 27.515413070563227,123.22136210516328 24.519112207228318,121.24462914426113 18.992601726669818,120.58571721077897 14.864364981418476,121.46426635008538 13.133168927161023,119.7803797609522 21.056720098713413,118.68219118996058 23.586929716635495,117.43757588742301 26.982737361220643,118.24291539366823 30.977805179078132,116.48581010528142 33.508014796767384,117.51078859908739 38.235511714359745,116.26617170753889 43.562268804060295,118.02327741665067 44.29469790379517,116.41259731195169 46.558569667162374,116.19295889668865 47.557336621684954,117.07151224208064 52.35141800274141,116.11974608007586 61.47348951920867,116.92508674273267 65.20221948227845,114.43584968260257 67.0,117.58400130493101 66.40073982765898,120.73214212583844 65.0024660914205,121.61069112474797 61.60665844660252,120.58571721077897 56.94574599270709,121.17141673050355 56.47965474729426,122.41602696845075 53.15043156640604,119.92680480447598 48.62268803967163,121.90354060439859 47.09124537627213,120.43929227255285 39.10110974125564,119.85359228547895 32.24290998792276,121.61069112474797 30.37854500627145,121.09820431092521 26.782983970828354,123.58742329728557 24.585696670925245,120.73214212583844 14.531442663399503,121.53747874044348 13.0,120.58571721077897 13.466091245645657,119.34110449027503 20.52404438983649,118.82861640874762 22.987669544294477,117.36436317017069 27.715166461188346,118.09649008145789 31.57706535141915,116.41259731195169 33.57459926046431,117.29115044680657 38.235511714359745,116.11974608007586 43.562268804060295,117.80363938718801 44.02836004947312,116.48581010528142 45.559802713105455,116.33938451274298 48.1565967942588,117.21793771756347 54.94821208389476,115.75368190859444 61.1405672011897,116.55902289267397 62.938347718911245,114.36263672570931 66.20098643680103,115.75368190859444 66.9334155365359,120.43929227255285 63.471023428021,121.68390350346453 60.807644883170724,120.95177945448086 55.14796547475271,122.12317765242187 55.68064118362963,125.63736327429069 56.812577065313235,122.7088761908235" stroke="#4dd2ff" stroke-linecap="round" stroke-linejoin="round" stroke-width="0.5"><title>2021-11-25 5.3km</title></polyline><polyline fill="none" points="114.25167037872598,123.50435668777209 117.1380846328102,125.8846566581633 121.5879732738249,123.50435668777209 124.35412026708946,124.16555146675091 123.27171492157504,120.46285730577074 117.49888641387224,117.55359180469532 108.83964365255088,119.80166104924865 106.19376391964033,116.627915346995 104.02895322954282,117.42135234223679 106.91536748269573,122.71092260431033 117.73942093504593,124.4300293045817 116.41648106882349,126.54585048754234 110.04231625795364,125.8846566581633 106.79510022280738,128.13271460263059 103.90868596872315,123.90107358642854 108.3585746102035,122.71092260431033 118.82182627962902,122.8431616446469 119.42316258326173,126.94256665871944 120.98663697065786,127.20704405358993 126.39866369683295,121.65300990222022 124.7149220481515,119.40494316886179 117.85968819539994,117.55359180469532 119.06236080173403,113.71864311373793 122.79064587969333,113.71864311373793 115.8151447661221,116.49567581072915 111.12472160346806,120.85957493295427 100.18040089076385,114.9088005538797 88.63474387582392,117.15687338612042 83.58351893117651,116.23119670688175 81.65924276178703,119.14046452916227 73.0,118.47926774516236 74.68374164775014,121.78524902719073 92.72383073531091,124.29779039078858 94.16703786188737,122.57868355337996 99.21826280653477,123.50435668777209 102.34521158179268,121.12405329826288 119.18262806208804,122.44644449208863 119.06236080173403,127.86823735537473 125.55679287295789,124.8267459818162 127.0,121.91748814133462 125.43652561213821,118.21478895784821 117.61915367469192,116.0989571387181 112.8084632512182,118.21478895784821 110.403118039947,122.04972724453546 107.51670378632843,119.66942176641896 106.79510022280738,115.56999876198824 114.8530066809617,111.86728539748583 117.01781737199053,113.05744416709058 110.7639198214747,122.181966337841 106.91536748269573,118.21478895784821 108.47884187102318,114.9088005538797 112.4476614696905,119.53718247264624 114.97327394224703,116.49567581072915 124.11358574638143,114.64432119647972 125.19599109096453,119.53718247264624 119.30289532244205,126.54585048754234 111.00445434311405,122.71092260431033 106.55456570116803,126.67808922193944 103.42761692684144,122.71092260431033 108.59910913137719,116.7601548723178 125.07572383014485,116.3634362637531 123.75278396392241,121.38853162154555 119.30289532244205,126.28137298754882 111.6057906462811,123.37211769993883 109.32071269443259,126.94256665871944 105.35189309576526,125.35570140439086 105.95322939846665,121.12405329826288 112.56792873051018,118.87598584720399 118.2204899773933,112.13176519796252 120.02449888596311,114.51208150212187 118.581291758921,116.23119670688175" stroke="#4dd2ff" stroke-linecap="round" stroke-linejoin="round" stroke-width="0.5"><title>2021-11-23 3.6km</title></polyline><polyline fill="none" points="182.32692307699472,118.89386047446169 185.50721153849736,118.89386047446169 185.57211538474075,121.53435408201767 184.07932692300528,122.890280202555 184.07932692300528,124.95984768657945 178.69230769225396,122.39072871312965 177.13461538474075,124.88848337036325 176.35576923075132,122.74755123385694 173.5649038462434,121.53435408201767 170.38461538450792,121.39162489707815 167.46394230774604,122.81891572108725 165.5168269232381,121.89117694465676 163.56971153849736,122.74755123385694 161.81730769225396,121.53435408201767 159.09134615398943,121.81981238350272 157.5336538462434,119.10795484116534 156.5600961537566,121.60571866593091 151.1081730767619,123.8180179427145 149.2259615387302,122.6761867411551 147.86298076924868,123.88938234437956 145.78605769225396,123.2471025242703 144.35817307699472,120.67797863099258 141.3725961537566,123.38983141293284 133.19471153849736,122.74755123385694 133.71394230774604,120.32115528435679 139.36057692300528,120.60661397309741 145.07211538450792,118.96522526908666 146.88942307699472,120.10706120805116 149.35576923075132,118.67976605647709 153.44471153826453,119.17931961873546 157.27403846150264,118.10884735826403 162.5961538462434,120.0356965046376 164.67307692300528,118.46567158738617 166.2956730767619,119.25068439065944 168.6322115387302,118.10884735826403 172.7860576924868,118.03748249518685 174.34375,119.25068439065944 174.99278846173547,123.88938234437956 181.09375,124.10347551532323 182.0024038462434,125.03121199714951 181.02884615398943,123.31846697145374 177.45913461549208,122.60482224280713 176.74519230774604,123.8180179427145 174.53846153849736,121.96254149999004 170.64423076924868,121.96254149999004 168.17788461525925,123.03300914826104 174.53846153849736,120.74934328324161 175.83653846150264,122.39072871312965 180.44471153849736,121.60571866593091 182.13221153826453,122.6761867411551 182.0024038462434,123.96074674045667 183.2355769232381,123.532560279069 184.85817307699472,124.6743903873139 187.0,121.60571866593091 184.40384615422226,119.536143420788 181.54807692300528,119.03659005812369 179.01682692300528,120.178425905935 178.62740384601057,122.96164467814378 175.70673076901585,119.32204915658804 174.92788461525925,119.46477867179783 176.2259615387302,121.81981238350272 180.25,121.74844781652791 184.40384615422226,123.88938234437956 186.35096153849736,122.96164467814378 186.41586538450792,121.03480183513602 183.1057692305185,117.96611762675457 178.10817307699472,119.536143420788 177.78365384601057,120.82070792972809 175.44711538474075,118.10884735826403 174.86298076924868,119.96433179551968 176.16105769225396,122.31936419184785 179.34134615398943,121.60571866593091 184.9230769232381,123.67528912215494 186.0264423075132,123.03300914826104 186.22115384647623,120.96343720582081 182.32692307699472,117.8233878724277 177.45913461549208,119.82160235999618 175.05769230774604,118.53703641629545 174.60336538474075,120.53524930938147 175.9663461537566,122.17663513222942 181.41826923075132,122.03390604991 185.57211538474075,123.88938234437956 186.22115384647623,121.10616645903792 184.20913461549208,119.17931961873546 182.65144230774604,114.96878800285049 177.8485576924868,120.74934328324161 175.77163461525925,118.89386047446169 175.3822115387302,119.46477867179783 175.9663461537566,121.39162489707815 184.14423076924868,122.17663513222942 184.7932692305185,124.17483989417087 185.37740384601057,121.74844781652791 181.41826923075132,118.82249567430699 176.9399038462434,120.67797863099258 170.12500000023283,118.67976605647709 164.02403846150264,118.60840123926755 162.4663461537566,120.10706120805116 155.19711538474075,118.82249567430699 152.99038461549208,120.178425905935 142.93028846150264,119.25068439065944 140.72355769225396,120.82070792972809 134.29807692300528,120.24979059799807 133.0,121.81981238350272 133.97355769225396,122.890280202555 140.26923076924868,123.03300914826104 144.35817307699472,120.82070792972809 143.57932692300528,120.89207257068483 146.24038461549208,122.74755123385694 144.6826923075132,121.53435408201767 147.01923076924868,122.53345773858018 159.09134615398943,121.32026029622648 167.91826923075132,122.46209322859067 174.2788461537566,120.67797863099258 176.03125000023283,121.89117694465676 180.05528846150264,121.81981238350272 184.46875,124.17483989417087 185.89663461525925,122.31936419184785 184.98798076924868,118.67976605647709 181.09375,118.18021221534582 177.3293269232381,119.3934139169869 179.34134615398943,119.75023763382342" stroke="#4dd2ff" stroke-linecap="round" stroke-linejoin="round" stroke-width="0.5"><title>2021-11-16 6.7km</title></polyline><polyline fill="none" points="61.65346534666605,181.6901511263568 59.51485148514621,181.91060392255895 58.3118811880704,183.38028788170777 55.972772277193144,181.4696982773021 51.69554455438629,181.17576106340857 49.82425742573105,182.0575724239461 46.41584158409387,180.58788635401288 38.86386138596572,180.80833941401215 36.25742574245669,181.9840881761047 30.443069307133555,182.42499357502675 28.237623762339354,184.556033360539 24.027227722574025,181.6901511263568 22.02227722783573,182.64544619526714 14.13613861380145,182.4984777875361 13.0,181.54318256635452 13.267326732631773,180.07349567540223 21.019801980117336,179.70607358618872 25.497524752281606,178.0159300880623 27.435643564444035,179.26516688568518 30.9777227723971,177.20759949251078 33.383663366315886,178.38335285143694 38.12871287111193,177.06063021696173 43.47524752467871,179.19168241514126 43.80940594035201,177.7219917717739 46.616336633916944,177.28108412143774 47.55198019812815,178.30986831040354 50.75990099017508,176.84017625980778 52.09653465356678,177.64850717800437 57.30940594058484,176.98714557063067 60.717821781756356,178.16289921099087 63.32425742573105,175.8848751692567 65.39603960397653,175.7379056829377 66.93316831672564,177.20759949251078 66.19801980210468,181.76363539748127 63.457920792046934,184.26209713157732 61.31930693052709,182.71893039019778 58.77970297029242,183.89467671338934 55.571782178245485,180.22046446998138 57.30940594058484,178.82425997400424 60.98514851462096,178.45683738670778 64.25990099017508,175.4439666394028 65.73019801964983,175.4439666394028 66.79950495040976,175.66442093072692 67.0,177.20759949251078 64.66089108912274,183.5272561486927 61.25247524725273,182.5719619943411 58.64603960397653,183.5272561486927 57.71039603929967,181.8371196629596 57.376237623626366,182.5719619943411 55.30445544561371,181.4696982773021 49.82425742573105,182.4984777875361 38.79702970292419,181.54318256635452 32.24752475251444,183.15983543737093 29.641089108772576,181.6901511263568 26.767326732864603,184.18861305963947 24.695544554386288,181.9840881761047 14.13613861380145,182.93938294018153 13.066831683274359,180.51440198876662 21.487623762339354,178.30986831040354 27.101485148537904,179.19168241514126 31.646039603743702,177.20759949251078 37.193069306900725,177.20759949251078 42.806930693099275,178.89774447405944 45.88118811883032,177.13411485758843 47.48514851485379,178.16289921099087 53.90099009871483,177.13411485758843 55.30445544561371,177.20759949251078 57.10891089076176,180.2939488583943 60.65099009894766,180.51440198876662 61.38613861380145,181.9840881761047" stroke="#4dd2ff" stroke-linecap="round" stroke-linejoin="round" stroke-width="0.5"><title>2021-11-03 4.0km</title></polyline><polyline fill="none" points="122.65652173897251,184.45317591738421 119.13478260813281,184.8404060463654 110.79999999981374,181.87163935578428 104.930434782058,183.54963858949486 104.46086956514046,179.93548423110042 101.9956521736458,179.16102153272368 102.81739130429924,175.80501222040039 109.9782608691603,180.19363838154823 115.61304347775877,177.0957858567126 122.30434782570228,178.77379004424438 122.89130434766412,184.8404060463654 120.77826086897403,186.13117247319315 112.91304347850382,182.00071628158912 104.930434782058,183.42056178709026 102.465217391029,176.19224441959523 106.10434782598168,176.9667085391702 108.56956521747634,179.80640714033507 115.61304347775877,177.0957858567126 120.54347826074809,177.74117228854448 123.12608695589006,184.32409918715712 120.07391304289922,185.61486602586228 110.33043478196487,182.00071628158912 105.63478260813281,183.80779216322117 104.6956521733664,180.45179249101784 101.87826086953282,178.64471286069602 102.2304347823374,176.19224441959523 104.57826086925343,175.5468573694816 110.2130434778519,179.93548423110042 115.61304347775877,177.22486316342838 121.83478260831907,177.74117228854448 123.12608695589006,183.9368689346593 119.95652173925191,185.35671274049673 110.33043478196487,181.74256241950206 104.81304347794503,183.67871538118925 104.22608695598319,179.93548423110042 101.87826086953282,179.54825292807072 103.16956521756947,175.03054754412733 109.86086956504732,180.19363838154823 115.37826086906716,177.35394046024885 121.48260869504884,177.22486316342838 123.00869565177709,184.32409918715712 119.72173912962899,185.74394265329465 111.73913043458015,182.25887010269798 105.28260869532824,183.80779216322117 102.11304347822443,179.29009867459536 103.16956521756947,175.80501222040039 110.09565217373893,179.4191758063389 114.67391304345801,177.61209502257407 108.68695652112365,179.54825292807072 104.81304347794503,175.15962501592003 96.47826086962596,176.83763121184893 92.95652173878625,175.67593479983043 88.4956521736458,177.999326789286 86.85217391280457,176.19224441959523 82.15652173897251,176.06316702987533 81.4521739128977,180.19363838154823 77.69565217383206,176.9667085391702 73.0,178.5156356667867 74.29130434757099,182.90425447490998 88.4956521736458,182.5170238824794 91.7826086957939,185.74394265329465 95.30434782570228,182.38794699741993 98.70869565196335,183.42056178709026 100.23478260776028,180.06456131162122 101.40869565214962,186.26024905906525 102.5826086960733,180.32271544123068 103.87391304364428,180.5808695300948 105.5173913044855,184.58225263701752 111.97391304327175,184.1950224468019 120.66086956532672,188.58362584700808 123.94782608700916,186.38932563515846 121.60000000009313,177.999326789286 127.0,173.9979273993522 125.23913043458015,172.57807362359017 107.5130434781313,171.41637415310834 102.81739130429924,172.44899594574235 96.9478260865435,176.83763121184893 93.42608695663512,175.5468573694816 87.90869565168396,178.12840402394067 86.85217391280457,175.93408963014372 81.33478260878474,175.5468573694816 80.86521739093587,179.67733003932517 77.22608695598319,176.70855387393385 73.35217391327024,179.29009867459536 74.17391304345801,182.77517762070056 88.14347826084122,183.03333131817635 92.2521739131771,185.22763608267996 95.30434782570228,182.90425447490998 98.70869565196335,183.03333131817635 100.70434782560915,179.80640714033507 103.05217391252518,180.32271544123068 102.34782608645037,176.83763121184893 104.46086956514046,173.86884983466007 114.79130434757099,174.6433150669327 121.3652173904702,177.22486316342838 123.12608695589006,185.35671274049673 119.36956521682441,186.6474787555635 110.56521739112213,183.42056178709026 105.28260869532824,183.80779216322117 111.97391304327175,182.90425447490998 121.3652173904702,186.38932563515846" stroke="#4dd2ff" stroke-linecap="round" stroke-linejoin="round" stroke-width="0.5"><title>2021-11-01 4.9km</title></polyline><polyline fill="none" points="165.4559585498646,172.3089068699628 152.58549222908914,178.76945294532925 140.554404146038,176.00064881099388 143.6321243532002,184.3070552519057 176.92746113985777,187.38349754083902 180.5647668391466,191.38286884641275 181.12435233127326,182.76883318647742 171.89119170978665,175.38535873242654 150.62694300618023,178.46180813992396 142.23316062334925,175.07771365717053 141.95336787588894,178.15416331007145 146.43005181476474,185.8452767028939 173.29015544056892,185.2299881959334 177.48704663291574,192.30580009706318 177.48704663291574,184.3070552519057 167.97409326490015,176.92358374316245 139.15544041618705,176.30829381244257 145.59067357704043,185.8452767028939 175.80829015560448,185.8452767028939 179.16580310929567,190.76758122304454 182.52331606205553,183.9994108879473 173.56994818616658,175.38535873242654 150.34715026058257,180.92296589864418 139.71502590738237,176.61593878967687 143.6321243532002,184.3070552519057 176.08808290027082,185.8452767028939 179.16580310929567,191.075225046603 182.8031088076532,190.1522935021203 181.40414507780224,184.3070552519057 169.37305699381977,174.4624234312214 153.70466321427375,180.61532126460224 140.27461140044034,172.9241974398028 143.6321243532002,183.9994108879473 152.02590673603117,183.9994108879473 154.82383419759572,189.22936173575 150.06735751312226,192.30580009706318 133.0,184.922343906248 135.51813471503556,179.07709772721864 147.26943005248904,169.23245255323127 147.26943005248904,172.9241974398028 155.94300518278033,177.53887357516214 181.68393782526255,170.770680018235 180.28497409261763,189.5370056827087 175.5284974090755,193.53637475473806 143.3523316066712,193.84401835734025 135.51813471503556,184.3070552519057 183.36269429977983,168.61716139502823 185.60103626921773,184.3070552519057 181.96373056992888,192.61344379838556 176.08808290027082,195.07459252350964 155.38341969065368,191.38286884641275 151.1865284992382,195.6898794597946 137.75647668540478,183.07647764892317 144.75129533745348,176.92358374316245 180.5647668391466,169.54009809507988 187.0,186.15292091970332 178.32642486970872,195.07459252350964 157.90155440475792,189.84464960428886 149.50777202192694,191.69051262154244 140.27461140044034,183.6917664988432 146.43005181476474,173.5394879092928 178.88601036276668,169.23245255323127 183.64248704630882,176.92358374316245 176.6476683942601,193.84401835734025 135.79792746249586,186.46056511206552 141.39378238469362,180.30767660634592 171.33160621766,172.9241974398028 168.81347150262445,164.31012053997256" stroke="#4dd2ff" stroke-linecap="round" stroke-linejoin="round" stroke-width="0.5"><title>2021-10-20 3.7km</title></polyline><polyline fill="none" points="30.613320484757423,221.10486936278176 31.55627459101379,219.03153597796336 31.813443892635405,220.06820312491618 31.299105289392173,216.2985000507906 27.441565762273967,213.0 21.783841122873127,215.63880077702925 20.92661011684686,223.17819911125116 24.269811040256172,221.76456558622885 24.35553414095193,223.8378941777628 19.38359430618584,237.9741285679629 17.840578495524824,253.24107185646426 23.06968763191253,255.6913036548067 29.41319707641378,256.53945963282604 66.53129963483661,251.26203477394301 58.90194368176162,254.1834693029523 36.871106828097254,256.25674104108475 33.956521407701075,258.7069665895542 33.09929040214047,267.0 32.07061319472268,258.89544526755344 18.440640199929476,256.7279386561131 16.72617818741128,257.2933755465783 13.468700365163386,264.0785971393343 19.726486708503217,236.0893070823513 19.297871205490083,242.1207252588356 18.526363300159574,245.04218237649184 18.78353260178119,238.82229725609068 20.755163915921003,225.25152522337157 22.469625927507877,224.0263784150593 30.613320484757423,226.94788024702575 32.670674899127334,222.70698812406044 31.813443892635405,222.04729242646135" stroke="#4dd2ff" stroke-linecap="round" stroke-linejoin="round" stroke-width="0.5"><title>2021-10-19 3.1km</title></polyline></svg>