<?xml version="1.0" encoding="utf-8" ?>
<svg baseProfile="full" height="300mm" version="1.1" viewBox="0,0,200,300" width="200mm" xmlns="http://www.w3.org/2000/svg" xmlns:ev="http://www.w3.org/2001/xml-events" xmlns:xlink="http://www.w3.org/1999/xlink"><defs /><rect fill="#222222" height="300" width="200" x="0" y="0" /><text fill="#FFFFFF" style="font-size:12px; font-family:Arial; font-weight:bold;" x="10" y="20">Over 3km Runs</text><text fill="#FFFFFF" style="font-size:4px; font-family:Arial" x="10" y="280">ATHLETE</text><text fill="#FFFFFF" style="font-size:9px; font-family:Arial" x="10" y="290">LinJincan</text><text fill="#FFFFFF" style="font-size:4px; font-family:Arial" x="120" y="280">STATISTICS</text><text fill="#FFFFFF" style="font-size:3px; font-family:Arial" x="120" y="285">Number: 7</text><text fill="#FFFFFF" style="font-size:3px; font-family:Arial" x="120" y="290">Weekly: 1.8</text><text fill="#FFFFFF" style="font-size:3px; font-family:Arial" x="141" y="285">Total: 31.4 km</text><text fill="#FFFFFF" style="font-size:3px; font-family:Arial" x="141" y="290">Avg: 4.5 km</text><text fill="#FFFFFF" style="font-size:3px; font-family:Arial" x="167" y="285">Min: 3.1 km</text><text fill="#FFFFFF" style="font-size:3px; font-family:Arial" x="167" y="290">Max: 6.7 km</text><polyline fill="none" points="59.27620221953839,62.34281464811647 59.54254007409327,63.14814984914847 62.27250308310613,61.244629144261125 58.210850801784545,61.97675295959925 55.214549938449636,59.414317049901 49.95437731198035,61.17141673050355 43.4956843405962,59.48752960388083 38.50184956844896,59.92680480447598 34.639950678218156,61.830328243086115 29.64611590653658,61.02499188570073 27.715166461188346,63.00172531971475 25.45129469805397,61.244629144261125 25.118372379802167,59.633954693970736 30.778051788453013,56.559022892673966 32.509247842244804,57.43757588742301 37.436498150462285,56.70544845017139 42.163995068054646,57.65721400472103 44.09494451293722,56.485810105281416 46.49198520369828,56.412597311951686 47.49075215798803,57.43757588742301 56.413070283830166,55.82689475448569 61.00739827379584,58.02327741665067 66.00123304594308,54.435849682602566 66.6670776817482,57.071512242080644 65.66831072792411,59.194679353386164 64.33662145514973,60.07322982448386 60.807644883170724,60.732142125838436 60.807644883170724,60.07322982448386 60.607891492312774,61.46426635008538 57.212083847261965,62.049965308920946 52.884093711618334,60.14644232572755 49.82120838481933,61.537478740443476 45.69297164026648,60.36607979447581 38.50184956844896,60.07322982448386 32.37607891508378,61.830328243086115 30.311960542807356,61.09820431092521 27.515413070563227,63.22136210516328 24.519112207228318,61.244629144261125 18.992601726669818,60.58571721077897 14.864364981418476,61.46426635008538 13.133168927161023,59.7803797609522 21.056720098713413,58.68219118996058 23.586929716635495,57.43757588742301 26.982737361220643,58.24291539366823 30.977805179078132,56.485810105281416 33.508014796767384,57.51078859908739 38.235511714359745,56.26617170753889 43.562268804060295,58.02327741665067 44.29469790379517,56.412597311951686 46.558569667162374,56.19295889668865 47.557336621684954,57.071512242080644 52.35141800274141,56.119746080075856 61.47348951920867,56.925086742732674 65.20221948227845,54.435849682602566 67.0,57.58400130493101 66.40073982765898,60.732142125838436 65.0024660914205,61.61069112474797 61.60665844660252,60.58571721077897 56.94574599270709,61.17141673050355 56.47965474729426,62.41602696845075 53.15043156640604,59.92680480447598 48.62268803967163,61.903540604398586 47.09124537627213,60.43929227255285 39.10110974125564,59.85359228547895 32.24290998792276,61.61069112474797 30.37854500627145,61.09820431092521 26.782983970828354,63.58742329728557 24.585696670925245,60.732142125838436 14.531442663399503,61.537478740443476 13.0,60.58571721077897 13.466091245645657,59.34110449027503 20.52404438983649,58.82861640874762 22.987669544294477,57.36436317017069 27.715166461188346,58.09649008145789 31.57706535141915,56.412597311951686 33.57459926046431,57.29115044680657 38.235511714359745,56.119746080075856 43.562268804060295,57.803639387188014 44.02836004947312,56.485810105281416 45.559802713105455,56.33938451274298 48.1565967942588,57.21793771756347 54.94821208389476,55.753681908594444 61.1405672011897,56.559022892673966 62.938347718911245,54.36263672570931 66.20098643680103,55.753681908594444 66.9334155365359,60.43929227255285 63.471023428021,61.683903503464535 60.807644883170724,60.95177945448086 55.14796547475271,62.12317765242187 55.68064118362963,65.63736327429069 56.812577065313235,62.7088761908235" stroke="#4dd2ff" stroke-linecap="round" stroke-linejoin="round" stroke-width="0.5"><title>2021-11-25 5.3km</title></polyline><polyline fill="none" points="174.25167037872598,63.50435668777209 177.1380846328102,65.8846566581633 181.5879732738249,63.50435668777209 184.35412026708946,64.16555146675091 183.27171492157504,60.46285730577074 177.49888641387224,57.553591804695316 168.83964365255088,59.80166104924865 166.19376391964033,56.627915346994996 164.02895322954282,57.42135234223679 166.91536748269573,62.710922604310326 177.73942093504593,64.4300293045817 176.4164810688235,66.54585048754234 170.04231625795364,65.8846566581633 166.79510022280738,68.13271460263059 163.90868596872315,63.90107358642854 168.3585746102035,62.710922604310326 178.82182627962902,62.8431616446469 179.42316258326173,66.94256665871944 180.98663697065786,67.20704405358993 186.39866369683295,61.65300990222022 184.7149220481515,59.40494316886179 177.85968819539994,57.553591804695316 179.06236080173403,53.718643113737926 182.79064587969333,53.718643113737926 175.8151447661221,56.49567581072915 171.12472160346806,60.859574932954274 160.18040089076385,54.9088005538797 148.63474387582392,57.156873386120424 143.5835189311765,56.23119670688175 141.65924276178703,59.14046452916227 133.0,58.47926774516236 134.68374164775014,61.78524902719073 152.7238307353109,64.29779039078858 154.16703786188737,62.57868355337996 159.21826280653477,63.50435668777209 162.34521158179268,61.12405329826288 179.18262806208804,62.44644449208863 179.06236080173403,67.86823735537473 185.55679287295789,64.8267459818162 187.0,61.917488141334616 185.4365256121382,58.214788957848214 177.61915367469192,56.098957138718106 172.8084632512182,58.214788957848214 170.403118039947,62.04972724453546 167.51670378632843,59.669421766418964 166.79510022280738,55.569998761988245 174.8530066809617,51.86728539748583 177.01781737199053,53.05744416709058 170.7639198214747,62.181966337841004 166.91536748269573,58.214788957848214 168.47884187102318,54.9088005538797 172.4476614696905,59.537182472646236 174.97327394224703,56.49567581072915 184.11358574638143,54.64432119647972 185.19599109096453,59.537182472646236 179.30289532244205,66.54585048754234 171.00445434311405,62.710922604310326 166.55456570116803,66.67808922193944 163.42761692684144,62.710922604310326 168.5991091313772,56.7601548723178 185.07572383014485,56.3634362637531 183.7527839639224,61.38853162154555 179.30289532244205,66.28137298754882 171.6057906462811,63.372117699938826 169.3207126944326,66.94256665871944 165.35189309576526,65.35570140439086 165.95322939846665,61.12405329826288 172.56792873051018,58.87598584720399 178.2204899773933,52.13176519796252 180.0244988859631,54.51208150212187 178.581291758921,56.23119670688175" stroke="#4dd2ff" stroke-linecap="round" stroke-linejoin="round" stroke-width="0.5"><title>2021-11-23 3.6km</title></polyline><polyline fill="none" points="62.32692307699472,118.89386047446169 65.50721153849736,118.89386047446169 65.57211538474075,121.53435408201767 64.07932692300528,122.890280202555 64.07932692300528,124.95984768657945 58.69230769225396,122.39072871312965 57.134615384740755,124.88848337036325 56.35576923075132,122.74755123385694 53.564903846243396,121.53435408201767 50.384615384507924,121.39162489707815 47.46394230774604,122.81891572108725 45.51682692323811,121.89117694465676 43.56971153849736,122.74755123385694 41.81730769225396,121.53435408201767 39.091346153989434,121.81981238350272 37.533653846243396,119.10795484116534 36.560096153756604,121.60571866593091 31.108173076761886,123.8180179427145 29.22596153873019,122.6761867411551 27.86298076924868,123.88938234437956 25.786057692253962,123.2471025242703 24.358173076994717,120.67797863099258 21.372596153756604,123.38983141293284 13.194711538497359,122.74755123385694 13.713942307746038,120.32115528435679 19.360576923005283,120.60661397309741 25.072115384507924,118.96522526908666 26.889423076994717,120.10706120805116 29.35576923075132,118.67976605647709 33.44471153826453,119.17931961873546 37.27403846150264,118.10884735826403 42.596153846243396,120.0356965046376 44.67307692300528,118.46567158738617 46.29567307676189,119.25068439065944 48.63221153873019,118.10884735826403 52.78605769248679,118.03748249518685 54.34375,119.25068439065944 54.99278846173547,123.88938234437956 61.09375,124.10347551532323 62.002403846243396,125.03121199714951 61.028846153989434,123.31846697145374 57.459134615492076,122.60482224280713 56.74519230774604,123.8180179427145 54.53846153849736,121.96254149999004 50.64423076924868,121.96254149999004 48.177884615259245,123.03300914826104 54.53846153849736,120.74934328324161 55.83653846150264,122.39072871312965 60.44471153849736,121.60571866593091 62.13221153826453,122.6761867411551 62.002403846243396,123.96074674045667 63.23557692323811,123.532560279069 64.85817307699472,124.6743903873139 67.0,121.60571866593091 64.40384615422226,119.536143420788 61.54807692300528,119.03659005812369 59.01682692300528,120.178425905935 58.627403846010566,122.96164467814378 55.70673076901585,119.32204915658804 54.927884615259245,119.46477867179783 56.22596153873019,121.81981238350272 60.25,121.74844781652791 64.40384615422226,123.88938234437956 66.35096153849736,122.96164467814378 66.41586538450792,121.03480183513602 63.10576923051849,117.96611762675457 58.10817307699472,119.536143420788 57.783653846010566,120.82070792972809 55.447115384740755,118.10884735826403 54.86298076924868,119.96433179551968 56.16105769225396,122.31936419184785 59.341346153989434,121.60571866593091 64.92307692323811,123.67528912215494 66.02644230751321,123.03300914826104 66.22115384647623,120.96343720582081 62.32692307699472,117.8233878724277 57.459134615492076,119.82160235999618 55.05769230774604,118.53703641629545 54.603365384740755,120.53524930938147 55.966346153756604,122.17663513222942 61.41826923075132,122.03390604991 65.57211538474075,123.88938234437956 66.22115384647623,121.10616645903792 64.20913461549208,119.17931961873546 62.65144230774604,114.96878800285049 57.84855769248679,120.74934328324161 55.771634615259245,118.89386047446169 55.38221153873019,119.46477867179783 55.966346153756604,121.39162489707815 64.14423076924868,122.17663513222942 64.79326923051849,124.17483989417087 65.37740384601057,121.74844781652791 61.41826923075132,118.82249567430699 56.939903846243396,120.67797863099258 50.12500000023283,118.67976605647709 44.02403846150264,118.60840123926755 42.466346153756604,120.10706120805116 35.197115384740755,118.82249567430699 32.990384615492076,120.178425905935 22.93028846150264,119.25068439065944 20.723557692253962,120.82070792972809 14.298076923005283,120.24979059799807 13.0,121.81981238350272 13.973557692253962,122.890280202555 20.26923076924868,123.03300914826104 24.358173076994717,120.82070792972809 23.579326923005283,120.89207257068483 26.240384615492076,122.74755123385694 24.682692307513207,121.53435408201767 27.01923076924868,122.53345773858018 39.091346153989434,121.32026029622648 47.91826923075132,122.46209322859067 54.278846153756604,120.67797863099258 56.03125000023283,121.89117694465676 60.05528846150264,121.81981238350272 64.46875,124.17483989417087 65.89663461525925,122.31936419184785 64.98798076924868,118.67976605647709 61.09375,118.18021221534582 57.32932692323811,119.3934139169869 59.341346153989434,119.75023763382342" stroke="#4dd2ff" stroke-linecap="round" stroke-linejoin="round" stroke-width="0.5"><title>2021-11-16 6.7km</title></polyline><polyline fill="none" points="181.65346534666605,121.6901511263568 179.5148514851462,121.91060392255895 178.3118811880704,123.38028788170777 175.97277227719314,121.46969827730209 171.6955445543863,121.17576106340857 169.82425742573105,122.05757242394611 166.41584158409387,120.58788635401288 158.86386138596572,120.80833941401215 156.2574257424567,121.9840881761047 150.44306930713356,122.42499357502675 148.23762376233935,124.556033360539 144.02722772257403,121.6901511263568 142.02227722783573,122.64544619526714 134.13613861380145,122.4984777875361 133.0,121.54318256635452 133.26732673263177,120.07349567540223 141.01980198011734,119.70607358618872 145.4975247522816,118.0159300880623 147.43564356444404,119.26516688568518 150.9777227723971,117.20759949251078 153.3836633663159,118.38335285143694 158.12871287111193,117.06063021696173 163.4752475246787,119.19168241514126 163.809405940352,117.7219917717739 166.61633663391694,117.28108412143774 167.55198019812815,118.30986831040354 170.75990099017508,116.84017625980778 172.09653465356678,117.64850717800437 177.30940594058484,116.98714557063067 180.71782178175636,118.16289921099087 183.32425742573105,115.8848751692567 185.39603960397653,115.73790568293771 186.93316831672564,117.20759949251078 186.19801980210468,121.76363539748127 183.45792079204693,124.26209713157732 181.3193069305271,122.71893039019778 178.77970297029242,123.89467671338934 175.57178217824548,120.22046446998138 177.30940594058484,118.82425997400424 180.98514851462096,118.45683738670778 184.25990099017508,115.44396663940279 185.73019801964983,115.44396663940279 186.79950495040976,115.66442093072692 187.0,117.20759949251078 184.66089108912274,123.52725614869269 181.25247524725273,122.57196199434111 178.64603960397653,123.52725614869269 177.71039603929967,121.8371196629596 177.37623762362637,122.57196199434111 175.3044554456137,121.46969827730209 169.82425742573105,122.4984777875361 158.7970297029242,121.54318256635452 152.24752475251444,123.15983543737093 149.64108910877258,121.6901511263568 146.7673267328646,124.18861305963947 144.6955445543863,121.9840881761047 134.13613861380145,122.93938294018153 133.06683168327436,120.51440198876662 141.48762376233935,118.30986831040354 147.1014851485379,119.19168241514126 151.6460396037437,117.20759949251078 157.19306930690072,117.20759949251078 162.80693069309928,118.89774447405944 165.88118811883032,117.13411485758843 167.4851485148538,118.16289921099087 173.90099009871483,117.13411485758843 175.3044554456137,117.20759949251078 177.10891089076176,120.29394885839429 180.65099009894766,120.51440198876662 181.38613861380145,121.9840881761047" stroke="#4dd2ff" stroke-linecap="round" stroke-linejoin="round" stroke-width="0.5"><title>2021-11-03 4.0km</title></polyline><polyline fill="none" points="62.656521738972515,184.45317591738421 59.13478260813281,184.8404060463654 50.799999999813735,181.87163935578428 44.930434782058,183.54963858949486 44.460869565140456,179.93548423110042 41.995652173645794,179.16102153272368 42.817391304299235,175.80501222040039 49.978260869160295,180.19363838154823 55.613043477758765,177.0957858567126 62.30434782570228,178.77379004424438 62.89130434766412,184.8404060463654 60.77826086897403,186.13117247319315 52.91304347850382,182.00071628158912 44.930434782058,183.42056178709026 42.465217391029,176.19224441959523 46.10434782598168,176.9667085391702 48.56956521747634,179.80640714033507 55.613043477758765,177.0957858567126 60.54347826074809,177.74117228854448 63.12608695589006,184.32409918715712 60.07391304289922,185.61486602586228 50.33043478196487,182.00071628158912 45.63478260813281,183.80779216322117 44.6956521733664,180.45179249101784 41.878260869532824,178.64471286069602 42.2304347823374,176.19224441959523 44.57826086925343,175.5468573694816 50.2130434778519,179.93548423110042 55.613043477758765,177.22486316342838 61.834782608319074,177.74117228854448 63.12608695589006,183.9368689346593 59.95652173925191,185.35671274049673 50.33043478196487,181.74256241950206 44.81304347794503,183.67871538118925 44.22608695598319,179.93548423110042 41.878260869532824,179.54825292807072 43.16956521756947,175.03054754412733 49.860869565047324,180.19363838154823 55.37826086906716,177.35394046024885 61.48260869504884,177.22486316342838 63.00869565177709,184.32409918715712 59.721739129628986,185.74394265329465 51.73913043458015,182.25887010269798 45.282608695328236,183.80779216322117 42.11304347822443,179.29009867459536 43.16956521756947,175.80501222040039 50.09565217373893,179.4191758063389 54.673913043458015,177.61209502257407 48.68695652112365,179.54825292807072 44.81304347794503,175.15962501592003 36.478260869625956,176.83763121184893 32.95652173878625,175.67593479983043 28.495652173645794,177.999326789286 26.852173912804574,176.19224441959523 22.156521738972515,176.06316702987533 21.452173912897706,180.19363838154823 17.69565217383206,176.9667085391702 13.0,178.5156356667867 14.291304347570986,182.90425447490998 28.495652173645794,182.5170238824794 31.782608695793897,185.74394265329465 35.30434782570228,182.38794699741993 38.70869565196335,183.42056178709026 40.23478260776028,180.06456131162122 41.40869565214962,186.26024905906525 42.582608696073294,180.32271544123068 43.87391304364428,180.5808695300948 45.5173913044855,184.58225263701752 51.97391304327175,184.1950224468019 60.66086956532672,188.58362584700808 63.94782608700916,186.38932563515846 61.60000000009313,177.999326789286 67.0,173.9979273993522 65.23913043458015,172.57807362359017 47.513043478131294,171.41637415310834 42.817391304299235,172.44899594574235 36.9478260865435,176.83763121184893 33.42608695663512,175.5468573694816 27.908695651683956,178.12840402394067 26.852173912804574,175.93408963014372 21.334782608784735,175.5468573694816 20.865217390935868,179.67733003932517 17.22608695598319,176.70855387393385 13.352173913270235,179.29009867459536 14.173913043458015,182.77517762070056 28.14347826084122,183.03333131817635 32.2521739131771,185.22763608267996 35.30434782570228,182.90425447490998 38.70869565196335,183.03333131817635 40.70434782560915,179.80640714033507 43.05217391252518,180.32271544123068 42.34782608645037,176.83763121184893 44.460869565140456,173.86884983466007 54.791304347570986,174.6433150669327 61.36521739047021,177.22486316342838 63.12608695589006,185.35671274049673 59.36956521682441,186.6474787555635 50.56521739112213,183.42056178709026 45.282608695328236,183.80779216322117 51.97391304327175,182.90425447490998 61.36521739047021,186.38932563515846" stroke="#4dd2ff" stroke-linecap="round" stroke-linejoin="round" stroke-width="0.5"><title>2021-11-01 4.9km</title></polyline><polyline fill="none" points="165.4559585498646,172.3089068699628 152.58549222908914,178.76945294532925 140.554404146038,176.00064881099388 143.6321243532002,184.3070552519057 176.92746113985777,187.38349754083902 180.5647668391466,191.38286884641275 181.12435233127326,182.76883318647742 171.89119170978665,175.38535873242654 150.62694300618023,178.46180813992396 142.23316062334925,175.07771365717053 141.95336787588894,178.15416331007145 146.43005181476474,185.8452767028939 173.29015544056892,185.2299881959334 177.48704663291574,192.30580009706318 177.48704663291574,184.3070552519057 167.97409326490015,176.92358374316245 139.15544041618705,176.30829381244257 145.59067357704043,185.8452767028939 175.80829015560448,185.8452767028939 179.16580310929567,190.76758122304454 182.52331606205553,183.9994108879473 173.56994818616658,175.38535873242654 150.34715026058257,180.92296589864418 139.71502590738237,176.61593878967687 143.6321243532002,184.3070552519057 176.08808290027082,185.8452767028939 179.16580310929567,191.075225046603 182.8031088076532,190.1522935021203 181.40414507780224,184.3070552519057 169.37305699381977,174.4624234312214 153.70466321427375,180.61532126460224 140.27461140044034,172.9241974398028 143.6321243532002,183.9994108879473 152.02590673603117,183.9994108879473 154.82383419759572,189.22936173575 150.06735751312226,192.30580009706318 133.0,184.922343906248 135.51813471503556,179.07709772721864 147.26943005248904,169.23245255323127 147.26943005248904,172.9241974398028 155.94300518278033,177.53887357516214 181.68393782526255,170.770680018235 180.28497409261763,189.5370056827087 175.5284974090755,193.53637475473806 143.3523316066712,193.84401835734025 135.51813471503556,184.3070552519057 183.36269429977983,168.61716139502823 185.60103626921773,184.3070552519057 181.96373056992888,192.61344379838556 176.08808290027082,195.07459252350964 155.38341969065368,191.38286884641275 151.1865284992382,195.6898794597946 137.75647668540478,183.07647764892317 144.75129533745348,176.92358374316245 180.5647668391466,169.54009809507988 187.0,186.15292091970332 178.32642486970872,195.07459252350964 157.90155440475792,189.84464960428886 149.50777202192694,191.69051262154244 140.27461140044034,183.6917664988432 146.43005181476474,173.5394879092928 178.88601036276668,169.23245255323127 183.64248704630882,176.92358374316245 176.6476683942601,193.84401835734025 135.79792746249586,186.46056511206552 141.39378238469362,180.30767660634592 171.33160621766,172.9241974398028 168.81347150262445,164.31012053997256" stroke="#4dd2ff" stroke-linecap="round" stroke-linejoin="round" stroke-width="0.5"><title>2021-10-20 3.7km</title></polyline><polyline fill="none" points="30.613320484757423,221.10486936278176 31.55627459101379,219.03153597796336 31.813443892635405,220.06820312491618 31.299105289392173,216.2985000507906 27.441565762273967,213.0 21.783841122873127,215.63880077702925 20.92661011684686,223.17819911125116 24.269811040256172,221.76456558622885 24.35553414095193,223.8378941777628 19.38359430618584,237.9741285679629 17.840578495524824,253.24107185646426 23.06968763191253,255.6913036548067 29.41319707641378,256.53945963282604 66.53129963483661,251.26203477394301 58.90194368176162,254.1834693029523 36.871106828097254,256.25674104108475 33.956521407701075,258.7069665895542 33.09929040214047,267.0 32.07061319472268,258.89544526755344 18.440640199929476,256.7279386561131 16.72617818741128,257.2933755465783 13.468700365163386,264.0785971393343 19.726486708503217,236.0893070823513 19.297871205490083,242.1207252588356 18.526363300159574,245.04218237649184 18.78353260178119,238.82229725609068 20.755163915921003,225.25152522337157 22.469625927507877,224.0263784150593 30.613320484757423,226.94788024702575 32.670674899127334,222.70698812406044 31.813443892635405,222.04729242646135" stroke="#4dd2ff" stroke-linecap="round" stroke-linejoin="round" stroke-width="0.5"><title>2021-10-19 3.1km</title></polyline></svg>