<?xml version="1.0" encoding="utf-8" ?>
<svg baseProfile="full" height="300mm" version="1.1" viewBox="0,0,200,300" width="200mm" xmlns="http://www.w3.org/2000/svg" xmlns:ev="http://www.w3.org/2001/xml-events" xmlns:xlink="http://www.w3.org/1999/xlink"><defs /><rect fill="#222222" height="300" width="200" x="0" y="0" /><text fill="#FFFFFF" style="font-size:12px; font-family:Arial; font-weight:bold;" x="10" y="20">Over 3km Runs</text><text fill="#FFFFFF" style="font-size:4px; font-family:Arial" x="10" y="280">ATHLETE</text><text fill="#FFFFFF" style="font-size:9px; font-family:Arial" x="10" y="290">LinJincan</text><text fill="#FFFFFF" style="font-size:4px; font-family:Arial" x="120" y="280">STATISTICS</text><text fill="#FFFFFF" style="font-size:3px; font-family:Arial" x="120" y="285">Number: 8</text><text fill="#FFFFFF" style="font-size:3px; font-family:Arial" x="120" y="290">Weekly: 1.6</text><text fill="#FFFFFF" style="font-size:3px; font-family:Arial" x="141" y="285">Total: 34.8 km</text><text fill="#FFFFFF" style="font-size:3px; font-family:Arial" x="141" y="290">Avg: 4.3 km</text><text fill="#FFFFFF" style="font-size:3px; font-family:Arial" x="167" y="285">Min: 3.1 km</text><text fill="#FFFFFF" style="font-size:3px; font-family:Arial" x="167" y="290">Max: 6.7 km</text><polyline fill="none" points="43.510000000242144,82.04325273586437 47.29000000003725,80.7073133746162 48.5050000003539,75.06666993943509 52.55500000016764,73.28541056450922 59.70999999996275,72.84009545424487 65.78500000014901,75.36354633595329 67.0,72.39478023746051 62.950000000186265,73.58228724554647 61.59999999962747,71.05883394787088 56.06500000040978,68.83225466602016 50.39500000048429,69.72288669866975 42.97000000020489,64.37908810807858 41.21499999938533,68.0900609800592 44.32000000029802,72.69165706075728 57.68500000052154,74.02760217804462 62.545000000391155,77.59011780086439 65.10999999986961,72.84009545424487 58.09000000031665,69.12913205765653 53.49999999953434,68.38693848997355 49.58500000042841,70.61351830465719 44.58999999985099,68.38693848997355 43.239999999757856,68.6838159528561 45.93999999994412,73.43384891096503 52.96000000042841,72.84009545424487 64.16500000050291,76.10573712026235 64.16500000050291,71.94946491415612 57.5500000002794,68.38693848997355 47.56000000005588,69.87132532917894 41.080000000074506,64.08220995857846 27.714999999385327,67.49630581773818 19.479999999515712,66.308794925455 18.53499999921769,70.01976394769736 13.269999999552965,67.79318342288025 15.834999999497086,61.26186517486349 13.0,51.61328489519656 16.510000000242144,46.86319622094743 17.994999999646097,39.7380404669093 33.65499999979511,37.95674726413563 39.72999999951571,38.698952972656116 41.889999999664724,40.925568321021274 52.68999999994412,39.29271732608322 57.5500000002794,41.816213714540936 63.08500000089407,41.2224501662422 62.545000000391155,40.03492250130512 56.47000000067055,43.449062494095415 53.22999999998137,40.48024546459783 43.239999999757856,41.96465457172599 42.02499999990687,44.63658797938842 40.40499999932945,55.027403638116084 45.39999999990687,71.20727247197647 50.52999999979511,73.73072556825355 61.06000000052154,74.02760217804462 64.3000000002794,76.84792760841083 64.43500000005588,72.09790336736478 54.1750000002794,64.08220995857846 44.32000000029802,62.746257699560374 43.510000000242144,66.90255046624225 46.47999999998137,73.13697220629547 62.00499999988824,75.36354633595329 63.49000000022352,71.65258797281422 57.00999999977648,68.0900609800592 44.9949999996461,66.60567271965556 43.64500000001863,67.1994281662628 45.12999999988824,71.35571098385844 53.22999999998137,73.87916387885343" stroke="#4dd2ff" stroke-linecap="round" stroke-linejoin="round" stroke-width="0.5"><title>2021-11-29 3.4km</title></polyline><polyline fill="none" points="179.2762022195384,62.34281464811647 179.54254007409327,63.14814984914847 182.27250308310613,61.244629144261125 178.21085080178455,61.97675295959925 175.21454993844964,59.414317049901 169.95437731198035,61.17141673050355 163.4956843405962,59.48752960388083 158.50184956844896,59.92680480447598 154.63995067821816,61.830328243086115 149.64611590653658,61.02499188570073 147.71516646118835,63.00172531971475 145.45129469805397,61.244629144261125 145.11837237980217,59.633954693970736 150.778051788453,56.559022892673966 152.5092478422448,57.43757588742301 157.43649815046228,56.70544845017139 162.16399506805465,57.65721400472103 164.09494451293722,56.485810105281416 166.49198520369828,56.412597311951686 167.49075215798803,57.43757588742301 176.41307028383017,55.82689475448569 181.00739827379584,58.02327741665067 186.00123304594308,54.435849682602566 186.6670776817482,57.071512242080644 185.6683107279241,59.194679353386164 184.33662145514973,60.07322982448386 180.80764488317072,60.732142125838436 180.80764488317072,60.07322982448386 180.60789149231277,61.46426635008538 177.21208384726197,62.049965308920946 172.88409371161833,60.14644232572755 169.82120838481933,61.537478740443476 165.69297164026648,60.36607979447581 158.50184956844896,60.07322982448386 152.37607891508378,61.830328243086115 150.31196054280736,61.09820431092521 147.51541307056323,63.22136210516328 144.51911220722832,61.244629144261125 138.99260172666982,60.58571721077897 134.86436498141848,61.46426635008538 133.13316892716102,59.7803797609522 141.0567200987134,58.68219118996058 143.5869297166355,57.43757588742301 146.98273736122064,58.24291539366823 150.97780517907813,56.485810105281416 153.50801479676738,57.51078859908739 158.23551171435975,56.26617170753889 163.5622688040603,58.02327741665067 164.29469790379517,56.412597311951686 166.55856966716237,56.19295889668865 167.55733662168495,57.071512242080644 172.3514180027414,56.119746080075856 181.47348951920867,56.925086742732674 185.20221948227845,54.435849682602566 187.0,57.58400130493101 186.40073982765898,60.732142125838436 185.0024660914205,61.61069112474797 181.60665844660252,60.58571721077897 176.9457459927071,61.17141673050355 176.47965474729426,62.41602696845075 173.15043156640604,59.92680480447598 168.62268803967163,61.903540604398586 167.09124537627213,60.43929227255285 159.10110974125564,59.85359228547895 152.24290998792276,61.61069112474797 150.37854500627145,61.09820431092521 146.78298397082835,63.58742329728557 144.58569667092524,60.732142125838436 134.5314426633995,61.537478740443476 133.0,60.58571721077897 133.46609124564566,59.34110449027503 140.5240443898365,58.82861640874762 142.98766954429448,57.36436317017069 147.71516646118835,58.09649008145789 151.57706535141915,56.412597311951686 153.5745992604643,57.29115044680657 158.23551171435975,56.119746080075856 163.5622688040603,57.803639387188014 164.02836004947312,56.485810105281416 165.55980271310546,56.33938451274298 168.1565967942588,57.21793771756347 174.94821208389476,55.753681908594444 181.1405672011897,56.559022892673966 182.93834771891125,54.36263672570931 186.20098643680103,55.753681908594444 186.9334155365359,60.43929227255285 183.471023428021,61.683903503464535 180.80764488317072,60.95177945448086 175.1479654747527,62.12317765242187 175.68064118362963,65.63736327429069 176.81257706531323,62.7088761908235" stroke="#4dd2ff" stroke-linecap="round" stroke-linejoin="round" stroke-width="0.5"><title>2021-11-25 5.3km</title></polyline><polyline fill="none" points="54.251670378725976,123.50435668777209 57.138084632810205,125.8846566581633 61.5879732738249,123.50435668777209 64.35412026708946,124.16555146675091 63.27171492157504,120.46285730577074 57.49888641387224,117.55359180469532 48.839643652550876,119.80166104924865 46.19376391964033,116.627915346995 44.02895322954282,117.42135234223679 46.91536748269573,122.71092260431033 57.73942093504593,124.4300293045817 56.41648106882349,126.54585048754234 50.042316257953644,125.8846566581633 46.79510022280738,128.13271460263059 43.90868596872315,123.90107358642854 48.358574610203505,122.71092260431033 58.82182627962902,122.8431616446469 59.42316258326173,126.94256665871944 60.986636970657855,127.20704405358993 66.39866369683295,121.65300990222022 64.7149220481515,119.40494316886179 57.85968819539994,117.55359180469532 59.06236080173403,113.71864311373793 62.79064587969333,113.71864311373793 55.8151447661221,116.49567581072915 51.12472160346806,120.85957493295427 40.18040089076385,114.9088005538797 28.634743875823915,117.15687338612042 23.583518931176513,116.23119670688175 21.659242761787027,119.14046452916227 13.0,118.47926774516236 14.68374164775014,121.78524902719073 32.72383073531091,124.29779039078858 34.167037861887366,122.57868355337996 39.21826280653477,123.50435668777209 42.34521158179268,121.12405329826288 59.18262806208804,122.44644449208863 59.06236080173403,127.86823735537473 65.55679287295789,124.8267459818162 67.0,121.91748814133462 65.43652561213821,118.21478895784821 57.619153674691916,116.0989571387181 52.8084632512182,118.21478895784821 50.403118039947,122.04972724453546 47.516703786328435,119.66942176641896 46.79510022280738,115.56999876198824 54.8530066809617,111.86728539748583 57.01781737199053,113.05744416709058 50.7639198214747,122.181966337841 46.91536748269573,118.21478895784821 48.47884187102318,114.9088005538797 52.4476614696905,119.53718247264624 54.97327394224703,116.49567581072915 64.11358574638143,114.64432119647972 65.19599109096453,119.53718247264624 59.302895322442055,126.54585048754234 51.00445434311405,122.71092260431033 46.55456570116803,126.67808922193944 43.42761692684144,122.71092260431033 48.59910913137719,116.7601548723178 65.07572383014485,116.3634362637531 63.75278396392241,121.38853162154555 59.302895322442055,126.28137298754882 51.60579064628109,123.37211769993883 49.320712694432586,126.94256665871944 45.35189309576526,125.35570140439086 45.95322939846665,121.12405329826288 52.567928730510175,118.87598584720399 58.2204899773933,112.13176519796252 60.02449888596311,114.51208150212187 58.581291758921,116.23119670688175" stroke="#4dd2ff" stroke-linecap="round" stroke-linejoin="round" stroke-width="0.5"><title>2021-11-23 3.6km</title></polyline><polyline fill="none" points="182.32692307699472,118.89386047446169 185.50721153849736,118.89386047446169 185.57211538474075,121.53435408201767 184.07932692300528,122.890280202555 184.07932692300528,124.95984768657945 178.69230769225396,122.39072871312965 177.13461538474075,124.88848337036325 176.35576923075132,122.74755123385694 173.5649038462434,121.53435408201767 170.38461538450792,121.39162489707815 167.46394230774604,122.81891572108725 165.5168269232381,121.89117694465676 163.56971153849736,122.74755123385694 161.81730769225396,121.53435408201767 159.09134615398943,121.81981238350272 157.5336538462434,119.10795484116534 156.5600961537566,121.60571866593091 151.1081730767619,123.8180179427145 149.2259615387302,122.6761867411551 147.86298076924868,123.88938234437956 145.78605769225396,123.2471025242703 144.35817307699472,120.67797863099258 141.3725961537566,123.38983141293284 133.19471153849736,122.74755123385694 133.71394230774604,120.32115528435679 139.36057692300528,120.60661397309741 145.07211538450792,118.96522526908666 146.88942307699472,120.10706120805116 149.35576923075132,118.67976605647709 153.44471153826453,119.17931961873546 157.27403846150264,118.10884735826403 162.5961538462434,120.0356965046376 164.67307692300528,118.46567158738617 166.2956730767619,119.25068439065944 168.6322115387302,118.10884735826403 172.7860576924868,118.03748249518685 174.34375,119.25068439065944 174.99278846173547,123.88938234437956 181.09375,124.10347551532323 182.0024038462434,125.03121199714951 181.02884615398943,123.31846697145374 177.45913461549208,122.60482224280713 176.74519230774604,123.8180179427145 174.53846153849736,121.96254149999004 170.64423076924868,121.96254149999004 168.17788461525925,123.03300914826104 174.53846153849736,120.74934328324161 175.83653846150264,122.39072871312965 180.44471153849736,121.60571866593091 182.13221153826453,122.6761867411551 182.0024038462434,123.96074674045667 183.2355769232381,123.532560279069 184.85817307699472,124.6743903873139 187.0,121.60571866593091 184.40384615422226,119.536143420788 181.54807692300528,119.03659005812369 179.01682692300528,120.178425905935 178.62740384601057,122.96164467814378 175.70673076901585,119.32204915658804 174.92788461525925,119.46477867179783 176.2259615387302,121.81981238350272 180.25,121.74844781652791 184.40384615422226,123.88938234437956 186.35096153849736,122.96164467814378 186.41586538450792,121.03480183513602 183.1057692305185,117.96611762675457 178.10817307699472,119.536143420788 177.78365384601057,120.82070792972809 175.44711538474075,118.10884735826403 174.86298076924868,119.96433179551968 176.16105769225396,122.31936419184785 179.34134615398943,121.60571866593091 184.9230769232381,123.67528912215494 186.0264423075132,123.03300914826104 186.22115384647623,120.96343720582081 182.32692307699472,117.8233878724277 177.45913461549208,119.82160235999618 175.05769230774604,118.53703641629545 174.60336538474075,120.53524930938147 175.9663461537566,122.17663513222942 181.41826923075132,122.03390604991 185.57211538474075,123.88938234437956 186.22115384647623,121.10616645903792 184.20913461549208,119.17931961873546 182.65144230774604,114.96878800285049 177.8485576924868,120.74934328324161 175.77163461525925,118.89386047446169 175.3822115387302,119.46477867179783 175.9663461537566,121.39162489707815 184.14423076924868,122.17663513222942 184.7932692305185,124.17483989417087 185.37740384601057,121.74844781652791 181.41826923075132,118.82249567430699 176.9399038462434,120.67797863099258 170.12500000023283,118.67976605647709 164.02403846150264,118.60840123926755 162.4663461537566,120.10706120805116 155.19711538474075,118.82249567430699 152.99038461549208,120.178425905935 142.93028846150264,119.25068439065944 140.72355769225396,120.82070792972809 134.29807692300528,120.24979059799807 133.0,121.81981238350272 133.97355769225396,122.890280202555 140.26923076924868,123.03300914826104 144.35817307699472,120.82070792972809 143.57932692300528,120.89207257068483 146.24038461549208,122.74755123385694 144.6826923075132,121.53435408201767 147.01923076924868,122.53345773858018 159.09134615398943,121.32026029622648 167.91826923075132,122.46209322859067 174.2788461537566,120.67797863099258 176.03125000023283,121.89117694465676 180.05528846150264,121.81981238350272 184.46875,124.17483989417087 185.89663461525925,122.31936419184785 184.98798076924868,118.67976605647709 181.09375,118.18021221534582 177.3293269232381,119.3934139169869 179.34134615398943,119.75023763382342" stroke="#4dd2ff" stroke-linecap="round" stroke-linejoin="round" stroke-width="0.5"><title>2021-11-16 6.7km</title></polyline><polyline fill="none" points="61.65346534666605,181.6901511263568 59.51485148514621,181.91060392255895 58.3118811880704,183.38028788170777 55.972772277193144,181.4696982773021 51.69554455438629,181.17576106340857 49.82425742573105,182.0575724239461 46.41584158409387,180.58788635401288 38.86386138596572,180.80833941401215 36.25742574245669,181.9840881761047 30.443069307133555,182.42499357502675 28.237623762339354,184.556033360539 24.027227722574025,181.6901511263568 22.02227722783573,182.64544619526714 14.13613861380145,182.4984777875361 13.0,181.54318256635452 13.267326732631773,180.07349567540223 21.019801980117336,179.70607358618872 25.497524752281606,178.0159300880623 27.435643564444035,179.26516688568518 30.9777227723971,177.20759949251078 33.383663366315886,178.38335285143694 38.12871287111193,177.06063021696173 43.47524752467871,179.19168241514126 43.80940594035201,177.7219917717739 46.616336633916944,177.28108412143774 47.55198019812815,178.30986831040354 50.75990099017508,176.84017625980778 52.09653465356678,177.64850717800437 57.30940594058484,176.98714557063067 60.717821781756356,178.16289921099087 63.32425742573105,175.8848751692567 65.39603960397653,175.7379056829377 66.93316831672564,177.20759949251078 66.19801980210468,181.76363539748127 63.457920792046934,184.26209713157732 61.31930693052709,182.71893039019778 58.77970297029242,183.89467671338934 55.571782178245485,180.22046446998138 57.30940594058484,178.82425997400424 60.98514851462096,178.45683738670778 64.25990099017508,175.4439666394028 65.73019801964983,175.4439666394028 66.79950495040976,175.66442093072692 67.0,177.20759949251078 64.66089108912274,183.5272561486927 61.25247524725273,182.5719619943411 58.64603960397653,183.5272561486927 57.71039603929967,181.8371196629596 57.376237623626366,182.5719619943411 55.30445544561371,181.4696982773021 49.82425742573105,182.4984777875361 38.79702970292419,181.54318256635452 32.24752475251444,183.15983543737093 29.641089108772576,181.6901511263568 26.767326732864603,184.18861305963947 24.695544554386288,181.9840881761047 14.13613861380145,182.93938294018153 13.066831683274359,180.51440198876662 21.487623762339354,178.30986831040354 27.101485148537904,179.19168241514126 31.646039603743702,177.20759949251078 37.193069306900725,177.20759949251078 42.806930693099275,178.89774447405944 45.88118811883032,177.13411485758843 47.48514851485379,178.16289921099087 53.90099009871483,177.13411485758843 55.30445544561371,177.20759949251078 57.10891089076176,180.2939488583943 60.65099009894766,180.51440198876662 61.38613861380145,181.9840881761047" stroke="#4dd2ff" stroke-linecap="round" stroke-linejoin="round" stroke-width="0.5"><title>2021-11-03 4.0km</title></polyline><polyline fill="none" points="182.65652173897251,184.45317591738421 179.1347826081328,184.8404060463654 170.79999999981374,181.87163935578428 164.930434782058,183.54963858949486 164.46086956514046,179.93548423110042 161.9956521736458,179.16102153272368 162.81739130429924,175.80501222040039 169.9782608691603,180.19363838154823 175.61304347775877,177.0957858567126 182.30434782570228,178.77379004424438 182.89130434766412,184.8404060463654 180.77826086897403,186.13117247319315 172.91304347850382,182.00071628158912 164.930434782058,183.42056178709026 162.465217391029,176.19224441959523 166.10434782598168,176.9667085391702 168.56956521747634,179.80640714033507 175.61304347775877,177.0957858567126 180.5434782607481,177.74117228854448 183.12608695589006,184.32409918715712 180.07391304289922,185.61486602586228 170.33043478196487,182.00071628158912 165.6347826081328,183.80779216322117 164.6956521733664,180.45179249101784 161.87826086953282,178.64471286069602 162.2304347823374,176.19224441959523 164.57826086925343,175.5468573694816 170.2130434778519,179.93548423110042 175.61304347775877,177.22486316342838 181.83478260831907,177.74117228854448 183.12608695589006,183.9368689346593 179.9565217392519,185.35671274049673 170.33043478196487,181.74256241950206 164.81304347794503,183.67871538118925 164.2260869559832,179.93548423110042 161.87826086953282,179.54825292807072 163.16956521756947,175.03054754412733 169.86086956504732,180.19363838154823 175.37826086906716,177.35394046024885 181.48260869504884,177.22486316342838 183.0086956517771,184.32409918715712 179.721739129629,185.74394265329465 171.73913043458015,182.25887010269798 165.28260869532824,183.80779216322117 162.11304347822443,179.29009867459536 163.16956521756947,175.80501222040039 170.09565217373893,179.4191758063389 174.67391304345801,177.61209502257407 168.68695652112365,179.54825292807072 164.81304347794503,175.15962501592003 156.47826086962596,176.83763121184893 152.95652173878625,175.67593479983043 148.4956521736458,177.999326789286 146.85217391280457,176.19224441959523 142.15652173897251,176.06316702987533 141.4521739128977,180.19363838154823 137.69565217383206,176.9667085391702 133.0,178.5156356667867 134.29130434757099,182.90425447490998 148.4956521736458,182.5170238824794 151.7826086957939,185.74394265329465 155.30434782570228,182.38794699741993 158.70869565196335,183.42056178709026 160.23478260776028,180.06456131162122 161.40869565214962,186.26024905906525 162.5826086960733,180.32271544123068 163.87391304364428,180.5808695300948 165.5173913044855,184.58225263701752 171.97391304327175,184.1950224468019 180.66086956532672,188.58362584700808 183.94782608700916,186.38932563515846 181.60000000009313,177.999326789286 187.0,173.9979273993522 185.23913043458015,172.57807362359017 167.5130434781313,171.41637415310834 162.81739130429924,172.44899594574235 156.9478260865435,176.83763121184893 153.42608695663512,175.5468573694816 147.90869565168396,178.12840402394067 146.85217391280457,175.93408963014372 141.33478260878474,175.5468573694816 140.86521739093587,179.67733003932517 137.2260869559832,176.70855387393385 133.35217391327024,179.29009867459536 134.17391304345801,182.77517762070056 148.14347826084122,183.03333131817635 152.2521739131771,185.22763608267996 155.30434782570228,182.90425447490998 158.70869565196335,183.03333131817635 160.70434782560915,179.80640714033507 163.05217391252518,180.32271544123068 162.34782608645037,176.83763121184893 164.46086956514046,173.86884983466007 174.79130434757099,174.6433150669327 181.3652173904702,177.22486316342838 183.12608695589006,185.35671274049673 179.3695652168244,186.6474787555635 170.56521739112213,183.42056178709026 165.28260869532824,183.80779216322117 171.97391304327175,182.90425447490998 181.3652173904702,186.38932563515846" stroke="#4dd2ff" stroke-linecap="round" stroke-linejoin="round" stroke-width="0.5"><title>2021-11-01 4.9km</title></polyline><polyline fill="none" points="45.45595854986459,232.3089068699628 32.58549222908914,238.76945294532925 20.554404146037996,236.00064881099388 23.632124353200197,244.3070552519057 56.92746113985777,247.38349754083902 60.564766839146614,251.38286884641275 61.12435233127326,242.76883318647742 51.89119170978665,235.38535873242654 30.626943006180227,238.46180813992396 22.23316062334925,235.07771365717053 21.953367875888944,238.15416331007145 26.430051814764738,245.8452767028939 53.290155440568924,245.2299881959334 57.487046632915735,252.30580009706318 57.487046632915735,244.3070552519057 47.97409326490015,236.92358374316245 19.155440416187048,236.30829381244257 25.590673577040434,245.8452767028939 55.80829015560448,245.8452767028939 59.165803109295666,250.76758122304454 62.52331606205553,243.9994108879473 53.569948186166584,235.38535873242654 30.347150260582566,240.92296589864418 19.71502590738237,236.61593878967687 23.632124353200197,244.3070552519057 56.08808290027082,245.8452767028939 59.165803109295666,251.075225046603 62.80310880765319,250.1522935021203 61.40414507780224,244.3070552519057 49.37305699381977,234.4624234312214 33.70466321427375,240.61532126460224 20.274611400440335,232.9241974398028 23.632124353200197,243.9994108879473 32.025906736031175,243.9994108879473 34.823834197595716,249.22936173575 30.06735751312226,252.30580009706318 13.0,244.922343906248 15.518134715035558,239.07709772721864 27.269430052489042,229.23245255323127 27.269430052489042,232.9241974398028 35.943005182780325,237.53887357516214 61.68393782526255,230.770680018235 60.28497409261763,249.5370056827087 55.5284974090755,253.53637475473806 23.352331606671214,253.84401835734025 15.518134715035558,244.3070552519057 63.36269429977983,228.61716139502823 65.60103626921773,244.3070552519057 61.963730569928885,252.61344379838556 56.08808290027082,255.07459252350964 35.38341969065368,251.38286884641275 31.186528499238193,255.6898794597946 17.756476685404778,243.07647764892317 24.751295337453485,236.92358374316245 60.564766839146614,229.54009809507988 67.0,246.15292091970332 58.32642486970872,255.07459252350964 37.90155440475792,249.84464960428886 29.50777202192694,251.69051262154244 20.274611400440335,243.6917664988432 26.430051814764738,233.5394879092928 58.88601036276668,229.23245255323127 63.642487046308815,236.92358374316245 56.64766839426011,253.84401835734025 15.797927462495863,246.46056511206552 21.393782384693623,240.30767660634592 51.33160621766001,232.9241974398028 48.81347150262445,224.31012053997256" stroke="#4dd2ff" stroke-linecap="round" stroke-linejoin="round" stroke-width="0.5"><title>2021-10-20 3.7km</title></polyline><polyline fill="none" points="150.61332048475742,221.10486936278176 151.5562745910138,219.03153597796336 151.8134438926354,220.06820312491618 151.29910528939217,216.2985000507906 147.44156576227397,213.0 141.78384112287313,215.63880077702925 140.92661011684686,223.17819911125116 144.26981104025617,221.76456558622885 144.35553414095193,223.8378941777628 139.38359430618584,237.9741285679629 137.84057849552482,253.24107185646426 143.06968763191253,255.6913036548067 149.41319707641378,256.53945963282604 186.5312996348366,251.26203477394301 178.90194368176162,254.1834693029523 156.87110682809725,256.25674104108475 153.95652140770108,258.7069665895542 153.09929040214047,267.0 152.07061319472268,258.89544526755344 138.44064019992948,256.7279386561131 136.72617818741128,257.2933755465783 133.4687003651634,264.0785971393343 139.72648670850322,236.0893070823513 139.29787120549008,242.1207252588356 138.52636330015957,245.04218237649184 138.7835326017812,238.82229725609068 140.755163915921,225.25152522337157 142.46962592750788,224.0263784150593 150.61332048475742,226.94788024702575 152.67067489912733,222.70698812406044 151.8134438926354,222.04729242646135" stroke="#4dd2ff" stroke-linecap="round" stroke-linejoin="round" stroke-width="0.5"><title>2021-10-19 3.1km</title></polyline></svg>