<?xml version="1.0" encoding="utf-8" ?>
<svg baseProfile="full" height="300mm" version="1.1" viewBox="0,0,200,300" width="200mm" xmlns="http://www.w3.org/2000/svg" xmlns:ev="http://www.w3.org/2001/xml-events" xmlns:xlink="http://www.w3.org/1999/xlink"><defs /><rect fill="#222222" height="300" width="200" x="0" y="0" /><text fill="#FFFFFF" style="font-size:12px; font-family:Arial; font-weight:bold;" x="10" y="20">Over 3km Runs</text><text fill="#FFFFFF" style="font-size:4px; font-family:Arial" x="10" y="280">ATHLETE</text><text fill="#FFFFFF" style="font-size:9px; font-family:Arial" x="10" y="290">LinJincan</text><text fill="#FFFFFF" style="font-size:4px; font-family:Arial" x="120" y="280">STATISTICS</text><text fill="#FFFFFF" style="font-size:3px; font-family:Arial" x="120" y="285">Number: 9</text><text fill="#FFFFFF" style="font-size:3px; font-family:Arial" x="120" y="290">Weekly: 1.8</text><text fill="#FFFFFF" style="font-size:3px; font-family:Arial" x="141" y="285">Total: 38.7 km</text><text fill="#FFFFFF" style="font-size:3px; font-family:Arial" x="141" y="290">Avg: 4.3 km</text><text fill="#FFFFFF" style="font-size:3px; font-family:Arial" x="167" y="285">Min: 3.1 km</text><text fill="#FFFFFF" style="font-size:3px; font-family:Arial" x="167" y="290">Max: 6.7 km</text><polyline fill="none" points="56.30731090856716,82.85899516841164 52.91780055779964,84.1012983523542 48.1724860672839,82.61053435323993 39.73637141706422,84.76385944278445 38.30524482484907,83.85283783444902 33.10799562046304,87.0 30.62235469603911,83.93565801379737 24.295268708840013,83.27309639484156 19.022697051987052,84.5982192097581 19.022697051987052,81.61669049737975 27.835423963610083,80.29156387626426 16.085121415089816,79.13207669492112 27.684779059141874,78.96643556357594 45.988134952727705,74.57693594356533 45.38555533485487,45.83767788915429 39.20911425119266,45.42356172623113 36.19621616182849,43.84991880028974 31.752191479783505,38.38356167502934 31.67686902731657,36.80990807415219 33.10799562046304,34.822131693712436 36.57282842276618,34.57365937833674 40.03766122600064,37.88661869050702 45.91281250026077,39.79156550584594 46.138779857195914,35.153428021410946 50.35683718184009,33.0 51.56199641758576,34.90495578548871 55.10215167282149,35.484724243404344 58.34101711912081,34.57365937833674 59.018919189460576,35.8988443724229 63.387621419038624,35.23625208676094 56.83456807443872,43.27015501563437 56.533278265967965,44.843798820802476 58.642306928057224,45.75485466973623 58.94359673699364,47.32849470729707 55.78005374316126,45.25791521486826 53.746347532607615,46.417440239398275 55.93069864762947,47.74261010979535 55.10215167282149,51.30399575212505 57.36182524031028,53.29174056381453 55.855376195628196,57.018751825089566 56.533278265967965,61.905257423291914 53.97231488954276,63.64451657625614 51.110061704646796,69.52484736545011 53.14376791520044,76.31617386237485 50.13086982537061,78.13822950882604 52.315220940392464,81.285409000644 54.12295979401097,79.04925613256637 57.13585788337514,78.22105014405679 57.813759953249246,81.285409000644 56.15666600409895,84.68103932944359 55.855376195628196,82.7761749032652 57.73843750124797,82.7761749032652 57.36182524031028,82.11361254414078 59.32020899839699,83.27309639484156 63.91487858444452,81.61669049737975 54.273604698479176,78.8007944052224 53.4450577236712,80.29156387626426 48.54909832868725,80.1259229296702 48.32313097175211,81.69951085513458 50.13086982537061,82.85899516841164" stroke="#4dd2ff" stroke-linecap="round" stroke-linejoin="round" stroke-width="0.5"><title>2021-12-04 3.9km</title></polyline><polyline fill="none" points="103.51000000024214,82.04325273586437 107.29000000003725,80.7073133746162 108.5050000003539,75.06666993943509 112.55500000016764,73.28541056450922 119.70999999996275,72.84009545424487 125.78500000014901,75.36354633595329 127.0,72.39478023746051 122.95000000018626,73.58228724554647 121.59999999962747,71.05883394787088 116.06500000040978,68.83225466602016 110.39500000048429,69.72288669866975 102.97000000020489,64.37908810807858 101.21499999938533,68.0900609800592 104.32000000029802,72.69165706075728 117.68500000052154,74.02760217804462 122.54500000039116,77.59011780086439 125.10999999986961,72.84009545424487 118.09000000031665,69.12913205765653 113.49999999953434,68.38693848997355 109.58500000042841,70.61351830465719 104.58999999985099,68.38693848997355 103.23999999975786,68.6838159528561 105.93999999994412,73.43384891096503 112.96000000042841,72.84009545424487 124.16500000050291,76.10573712026235 124.16500000050291,71.94946491415612 117.5500000002794,68.38693848997355 107.56000000005588,69.87132532917894 101.0800000000745,64.08220995857846 87.71499999938533,67.49630581773818 79.47999999951571,66.308794925455 78.53499999921769,70.01976394769736 73.26999999955297,67.79318342288025 75.83499999949709,61.26186517486349 73.0,51.61328489519656 76.51000000024214,46.86319622094743 77.9949999996461,39.7380404669093 93.65499999979511,37.95674726413563 99.72999999951571,38.698952972656116 101.88999999966472,40.925568321021274 112.68999999994412,39.29271732608322 117.5500000002794,41.816213714540936 123.08500000089407,41.2224501662422 122.54500000039116,40.03492250130512 116.47000000067055,43.449062494095415 113.22999999998137,40.48024546459783 103.23999999975786,41.96465457172599 102.02499999990687,44.63658797938842 100.40499999932945,55.027403638116084 105.39999999990687,71.20727247197647 110.52999999979511,73.73072556825355 121.06000000052154,74.02760217804462 124.3000000002794,76.84792760841083 124.43500000005588,72.09790336736478 114.1750000002794,64.08220995857846 104.32000000029802,62.746257699560374 103.51000000024214,66.90255046624225 106.47999999998137,73.13697220629547 122.00499999988824,75.36354633595329 123.49000000022352,71.65258797281422 117.00999999977648,68.0900609800592 104.9949999996461,66.60567271965556 103.64500000001863,67.1994281662628 105.12999999988824,71.35571098385844 113.22999999998137,73.87916387885343" stroke="#4dd2ff" stroke-linecap="round" stroke-linejoin="round" stroke-width="0.5"><title>2021-11-29 3.4km</title></polyline><polyline fill="none" points="179.2762022195384,62.34281464811647 179.54254007409327,63.14814984914847 182.27250308310613,61.244629144261125 178.21085080178455,61.97675295959925 175.21454993844964,59.414317049901 169.95437731198035,61.17141673050355 163.4956843405962,59.48752960388083 158.50184956844896,59.92680480447598 154.63995067821816,61.830328243086115 149.64611590653658,61.02499188570073 147.71516646118835,63.00172531971475 145.45129469805397,61.244629144261125 145.11837237980217,59.633954693970736 150.778051788453,56.559022892673966 152.5092478422448,57.43757588742301 157.43649815046228,56.70544845017139 162.16399506805465,57.65721400472103 164.09494451293722,56.485810105281416 166.49198520369828,56.412597311951686 167.49075215798803,57.43757588742301 176.41307028383017,55.82689475448569 181.00739827379584,58.02327741665067 186.00123304594308,54.435849682602566 186.6670776817482,57.071512242080644 185.6683107279241,59.194679353386164 184.33662145514973,60.07322982448386 180.80764488317072,60.732142125838436 180.80764488317072,60.07322982448386 180.60789149231277,61.46426635008538 177.21208384726197,62.049965308920946 172.88409371161833,60.14644232572755 169.82120838481933,61.537478740443476 165.69297164026648,60.36607979447581 158.50184956844896,60.07322982448386 152.37607891508378,61.830328243086115 150.31196054280736,61.09820431092521 147.51541307056323,63.22136210516328 144.51911220722832,61.244629144261125 138.99260172666982,60.58571721077897 134.86436498141848,61.46426635008538 133.13316892716102,59.7803797609522 141.0567200987134,58.68219118996058 143.5869297166355,57.43757588742301 146.98273736122064,58.24291539366823 150.97780517907813,56.485810105281416 153.50801479676738,57.51078859908739 158.23551171435975,56.26617170753889 163.5622688040603,58.02327741665067 164.29469790379517,56.412597311951686 166.55856966716237,56.19295889668865 167.55733662168495,57.071512242080644 172.3514180027414,56.119746080075856 181.47348951920867,56.925086742732674 185.20221948227845,54.435849682602566 187.0,57.58400130493101 186.40073982765898,60.732142125838436 185.0024660914205,61.61069112474797 181.60665844660252,60.58571721077897 176.9457459927071,61.17141673050355 176.47965474729426,62.41602696845075 173.15043156640604,59.92680480447598 168.62268803967163,61.903540604398586 167.09124537627213,60.43929227255285 159.10110974125564,59.85359228547895 152.24290998792276,61.61069112474797 150.37854500627145,61.09820431092521 146.78298397082835,63.58742329728557 144.58569667092524,60.732142125838436 134.5314426633995,61.537478740443476 133.0,60.58571721077897 133.46609124564566,59.34110449027503 140.5240443898365,58.82861640874762 142.98766954429448,57.36436317017069 147.71516646118835,58.09649008145789 151.57706535141915,56.412597311951686 153.5745992604643,57.29115044680657 158.23551171435975,56.119746080075856 163.5622688040603,57.803639387188014 164.02836004947312,56.485810105281416 165.55980271310546,56.33938451274298 168.1565967942588,57.21793771756347 174.94821208389476,55.753681908594444 181.1405672011897,56.559022892673966 182.93834771891125,54.36263672570931 186.20098643680103,55.753681908594444 186.9334155365359,60.43929227255285 183.471023428021,61.683903503464535 180.80764488317072,60.95177945448086 175.1479654747527,62.12317765242187 175.68064118362963,65.63736327429069 176.81257706531323,62.7088761908235" stroke="#4dd2ff" stroke-linecap="round" stroke-linejoin="round" stroke-width="0.5"><title>2021-11-25 5.3km</title></polyline><polyline fill="none" points="54.251670378725976,153.5043566877721 57.138084632810205,155.8846566581633 61.5879732738249,153.5043566877721 64.35412026708946,154.1655514667509 63.27171492157504,150.46285730577074 57.49888641387224,147.55359180469532 48.839643652550876,149.80166104924865 46.19376391964033,146.627915346995 44.02895322954282,147.4213523422368 46.91536748269573,152.71092260431033 57.73942093504593,154.4300293045817 56.41648106882349,156.54585048754234 50.042316257953644,155.8846566581633 46.79510022280738,158.13271460263059 43.90868596872315,153.90107358642854 48.358574610203505,152.71092260431033 58.82182627962902,152.8431616446469 59.42316258326173,156.94256665871944 60.986636970657855,157.20704405358993 66.39866369683295,151.65300990222022 64.7149220481515,149.4049431688618 57.85968819539994,147.55359180469532 59.06236080173403,143.71864311373793 62.79064587969333,143.71864311373793 55.8151447661221,146.49567581072915 51.12472160346806,150.85957493295427 40.18040089076385,144.9088005538797 28.634743875823915,147.15687338612042 23.583518931176513,146.23119670688175 21.659242761787027,149.14046452916227 13.0,148.47926774516236 14.68374164775014,151.78524902719073 32.72383073531091,154.29779039078858 34.167037861887366,152.57868355337996 39.21826280653477,153.5043566877721 42.34521158179268,151.12405329826288 59.18262806208804,152.44644449208863 59.06236080173403,157.86823735537473 65.55679287295789,154.8267459818162 67.0,151.91748814133462 65.43652561213821,148.2147889578482 57.619153674691916,146.0989571387181 52.8084632512182,148.2147889578482 50.403118039947,152.04972724453546 47.516703786328435,149.66942176641896 46.79510022280738,145.56999876198824 54.8530066809617,141.86728539748583 57.01781737199053,143.05744416709058 50.7639198214747,152.181966337841 46.91536748269573,148.2147889578482 48.47884187102318,144.9088005538797 52.4476614696905,149.53718247264624 54.97327394224703,146.49567581072915 64.11358574638143,144.64432119647972 65.19599109096453,149.53718247264624 59.302895322442055,156.54585048754234 51.00445434311405,152.71092260431033 46.55456570116803,156.67808922193944 43.42761692684144,152.71092260431033 48.59910913137719,146.7601548723178 65.07572383014485,146.3634362637531 63.75278396392241,151.38853162154555 59.302895322442055,156.28137298754882 51.60579064628109,153.37211769993883 49.320712694432586,156.94256665871944 45.35189309576526,155.35570140439086 45.95322939846665,151.12405329826288 52.567928730510175,148.875985847204 58.2204899773933,142.13176519796252 60.02449888596311,144.51208150212187 58.581291758921,146.23119670688175" stroke="#4dd2ff" stroke-linecap="round" stroke-linejoin="round" stroke-width="0.5"><title>2021-11-23 3.6km</title></polyline><polyline fill="none" points="122.32692307699472,148.8938604744617 125.50721153849736,148.8938604744617 125.57211538474075,151.53435408201767 124.07932692300528,152.890280202555 124.07932692300528,154.95984768657945 118.69230769225396,152.39072871312965 117.13461538474075,154.88848337036325 116.35576923075132,152.74755123385694 113.5649038462434,151.53435408201767 110.38461538450792,151.39162489707815 107.46394230774604,152.81891572108725 105.51682692323811,151.89117694465676 103.56971153849736,152.74755123385694 101.81730769225396,151.53435408201767 99.09134615398943,151.81981238350272 97.5336538462434,149.10795484116534 96.5600961537566,151.6057186659309 91.10817307676189,153.8180179427145 89.22596153873019,152.6761867411551 87.86298076924868,153.88938234437956 85.78605769225396,153.2471025242703 84.35817307699472,150.67797863099258 81.3725961537566,153.38983141293284 73.19471153849736,152.74755123385694 73.71394230774604,150.3211552843568 79.36057692300528,150.6066139730974 85.07211538450792,148.96522526908666 86.88942307699472,150.10706120805116 89.35576923075132,148.6797660564771 93.44471153826453,149.17931961873546 97.27403846150264,148.10884735826403 102.5961538462434,150.0356965046376 104.67307692300528,148.46567158738617 106.29567307676189,149.25068439065944 108.63221153873019,148.10884735826403 112.78605769248679,148.03748249518685 114.34375,149.25068439065944 114.99278846173547,153.88938234437956 121.09375,154.10347551532323 122.0024038462434,155.0312119971495 121.02884615398943,153.31846697145374 117.45913461549208,152.60482224280713 116.74519230774604,153.8180179427145 114.53846153849736,151.96254149999004 110.64423076924868,151.96254149999004 108.17788461525925,153.03300914826104 114.53846153849736,150.74934328324161 115.83653846150264,152.39072871312965 120.44471153849736,151.6057186659309 122.13221153826453,152.6761867411551 122.0024038462434,153.96074674045667 123.23557692323811,153.532560279069 124.85817307699472,154.6743903873139 127.0,151.6057186659309 124.40384615422226,149.536143420788 121.54807692300528,149.0365900581237 119.01682692300528,150.178425905935 118.62740384601057,152.96164467814378 115.70673076901585,149.32204915658804 114.92788461525925,149.46477867179783 116.22596153873019,151.81981238350272 120.25,151.74844781652791 124.40384615422226,153.88938234437956 126.35096153849736,152.96164467814378 126.41586538450792,151.03480183513602 123.10576923051849,147.96611762675457 118.10817307699472,149.536143420788 117.78365384601057,150.8207079297281 115.44711538474075,148.10884735826403 114.86298076924868,149.96433179551968 116.16105769225396,152.31936419184785 119.34134615398943,151.6057186659309 124.92307692323811,153.67528912215494 126.02644230751321,153.03300914826104 126.22115384647623,150.9634372058208 122.32692307699472,147.8233878724277 117.45913461549208,149.82160235999618 115.05769230774604,148.53703641629545 114.60336538474075,150.53524930938147 115.9663461537566,152.17663513222942 121.41826923075132,152.03390604991 125.57211538474075,153.88938234437956 126.22115384647623,151.10616645903792 124.20913461549208,149.17931961873546 122.65144230774604,144.9687880028505 117.84855769248679,150.74934328324161 115.77163461525925,148.8938604744617 115.38221153873019,149.46477867179783 115.9663461537566,151.39162489707815 124.14423076924868,152.17663513222942 124.79326923051849,154.17483989417087 125.37740384601057,151.74844781652791 121.41826923075132,148.822495674307 116.9399038462434,150.67797863099258 110.12500000023283,148.6797660564771 104.02403846150264,148.60840123926755 102.4663461537566,150.10706120805116 95.19711538474075,148.822495674307 92.99038461549208,150.178425905935 82.93028846150264,149.25068439065944 80.72355769225396,150.8207079297281 74.29807692300528,150.24979059799807 73.0,151.81981238350272 73.97355769225396,152.890280202555 80.26923076924868,153.03300914826104 84.35817307699472,150.8207079297281 83.57932692300528,150.89207257068483 86.24038461549208,152.74755123385694 84.68269230751321,151.53435408201767 87.01923076924868,152.53345773858018 99.09134615398943,151.32026029622648 107.91826923075132,152.46209322859067 114.2788461537566,150.67797863099258 116.03125000023283,151.89117694465676 120.05528846150264,151.81981238350272 124.46875,154.17483989417087 125.89663461525925,152.31936419184785 124.98798076924868,148.6797660564771 121.09375,148.18021221534582 117.32932692323811,149.3934139169869 119.34134615398943,149.75023763382342" stroke="#4dd2ff" stroke-linecap="round" stroke-linejoin="round" stroke-width="0.5"><title>2021-11-16 6.7km</title></polyline><polyline fill="none" points="181.65346534666605,151.6901511263568 179.5148514851462,151.91060392255895 178.3118811880704,153.38028788170777 175.97277227719314,151.4696982773021 171.6955445543863,151.17576106340857 169.82425742573105,152.0575724239461 166.41584158409387,150.58788635401288 158.86386138596572,150.80833941401215 156.2574257424567,151.9840881761047 150.44306930713356,152.42499357502675 148.23762376233935,154.556033360539 144.02722772257403,151.6901511263568 142.02227722783573,152.64544619526714 134.13613861380145,152.4984777875361 133.0,151.54318256635452 133.26732673263177,150.07349567540223 141.01980198011734,149.70607358618872 145.4975247522816,148.0159300880623 147.43564356444404,149.26516688568518 150.9777227723971,147.20759949251078 153.3836633663159,148.38335285143694 158.12871287111193,147.06063021696173 163.4752475246787,149.19168241514126 163.809405940352,147.7219917717739 166.61633663391694,147.28108412143774 167.55198019812815,148.30986831040354 170.75990099017508,146.84017625980778 172.09653465356678,147.64850717800437 177.30940594058484,146.98714557063067 180.71782178175636,148.16289921099087 183.32425742573105,145.8848751692567 185.39603960397653,145.7379056829377 186.93316831672564,147.20759949251078 186.19801980210468,151.76363539748127 183.45792079204693,154.26209713157732 181.3193069305271,152.71893039019778 178.77970297029242,153.89467671338934 175.57178217824548,150.22046446998138 177.30940594058484,148.82425997400424 180.98514851462096,148.45683738670778 184.25990099017508,145.4439666394028 185.73019801964983,145.4439666394028 186.79950495040976,145.66442093072692 187.0,147.20759949251078 184.66089108912274,153.5272561486927 181.25247524725273,152.5719619943411 178.64603960397653,153.5272561486927 177.71039603929967,151.8371196629596 177.37623762362637,152.5719619943411 175.3044554456137,151.4696982773021 169.82425742573105,152.4984777875361 158.7970297029242,151.54318256635452 152.24752475251444,153.15983543737093 149.64108910877258,151.6901511263568 146.7673267328646,154.18861305963947 144.6955445543863,151.9840881761047 134.13613861380145,152.93938294018153 133.06683168327436,150.51440198876662 141.48762376233935,148.30986831040354 147.1014851485379,149.19168241514126 151.6460396037437,147.20759949251078 157.19306930690072,147.20759949251078 162.80693069309928,148.89774447405944 165.88118811883032,147.13411485758843 167.4851485148538,148.16289921099087 173.90099009871483,147.13411485758843 175.3044554456137,147.20759949251078 177.10891089076176,150.2939488583943 180.65099009894766,150.51440198876662 181.38613861380145,151.9840881761047" stroke="#4dd2ff" stroke-linecap="round" stroke-linejoin="round" stroke-width="0.5"><title>2021-11-03 4.0km</title></polyline><polyline fill="none" points="62.656521738972515,244.45317591738421 59.13478260813281,244.8404060463654 50.799999999813735,241.87163935578428 44.930434782058,243.54963858949486 44.460869565140456,239.93548423110042 41.995652173645794,239.16102153272368 42.817391304299235,235.80501222040039 49.978260869160295,240.19363838154823 55.613043477758765,237.0957858567126 62.30434782570228,238.77379004424438 62.89130434766412,244.8404060463654 60.77826086897403,246.13117247319315 52.91304347850382,242.00071628158912 44.930434782058,243.42056178709026 42.465217391029,236.19224441959523 46.10434782598168,236.9667085391702 48.56956521747634,239.80640714033507 55.613043477758765,237.0957858567126 60.54347826074809,237.74117228854448 63.12608695589006,244.32409918715712 60.07391304289922,245.61486602586228 50.33043478196487,242.00071628158912 45.63478260813281,243.80779216322117 44.6956521733664,240.45179249101784 41.878260869532824,238.64471286069602 42.2304347823374,236.19224441959523 44.57826086925343,235.5468573694816 50.2130434778519,239.93548423110042 55.613043477758765,237.22486316342838 61.834782608319074,237.74117228854448 63.12608695589006,243.9368689346593 59.95652173925191,245.35671274049673 50.33043478196487,241.74256241950206 44.81304347794503,243.67871538118925 44.22608695598319,239.93548423110042 41.878260869532824,239.54825292807072 43.16956521756947,235.03054754412733 49.860869565047324,240.19363838154823 55.37826086906716,237.35394046024885 61.48260869504884,237.22486316342838 63.00869565177709,244.32409918715712 59.721739129628986,245.74394265329465 51.73913043458015,242.25887010269798 45.282608695328236,243.80779216322117 42.11304347822443,239.29009867459536 43.16956521756947,235.80501222040039 50.09565217373893,239.4191758063389 54.673913043458015,237.61209502257407 48.68695652112365,239.54825292807072 44.81304347794503,235.15962501592003 36.478260869625956,236.83763121184893 32.95652173878625,235.67593479983043 28.495652173645794,237.999326789286 26.852173912804574,236.19224441959523 22.156521738972515,236.06316702987533 21.452173912897706,240.19363838154823 17.69565217383206,236.9667085391702 13.0,238.5156356667867 14.291304347570986,242.90425447490998 28.495652173645794,242.5170238824794 31.782608695793897,245.74394265329465 35.30434782570228,242.38794699741993 38.70869565196335,243.42056178709026 40.23478260776028,240.06456131162122 41.40869565214962,246.26024905906525 42.582608696073294,240.32271544123068 43.87391304364428,240.5808695300948 45.5173913044855,244.58225263701752 51.97391304327175,244.1950224468019 60.66086956532672,248.58362584700808 63.94782608700916,246.38932563515846 61.60000000009313,237.999326789286 67.0,233.9979273993522 65.23913043458015,232.57807362359017 47.513043478131294,231.41637415310834 42.817391304299235,232.44899594574235 36.9478260865435,236.83763121184893 33.42608695663512,235.5468573694816 27.908695651683956,238.12840402394067 26.852173912804574,235.93408963014372 21.334782608784735,235.5468573694816 20.865217390935868,239.67733003932517 17.22608695598319,236.70855387393385 13.352173913270235,239.29009867459536 14.173913043458015,242.77517762070056 28.14347826084122,243.03333131817635 32.2521739131771,245.22763608267996 35.30434782570228,242.90425447490998 38.70869565196335,243.03333131817635 40.70434782560915,239.80640714033507 43.05217391252518,240.32271544123068 42.34782608645037,236.83763121184893 44.460869565140456,233.86884983466007 54.791304347570986,234.6433150669327 61.36521739047021,237.22486316342838 63.12608695589006,245.35671274049673 59.36956521682441,246.6474787555635 50.56521739112213,243.42056178709026 45.282608695328236,243.80779216322117 51.97391304327175,242.90425447490998 61.36521739047021,246.38932563515846" stroke="#4dd2ff" stroke-linecap="round" stroke-linejoin="round" stroke-width="0.5"><title>2021-11-01 4.9km</title></polyline><polyline fill="none" points="105.45595854986459,232.3089068699628 92.58549222908914,238.76945294532925 80.554404146038,236.00064881099388 83.6321243532002,244.3070552519057 116.92746113985777,247.38349754083902 120.56476683914661,251.38286884641275 121.12435233127326,242.76883318647742 111.89119170978665,235.38535873242654 90.62694300618023,238.46180813992396 82.23316062334925,235.07771365717053 81.95336787588894,238.15416331007145 86.43005181476474,245.8452767028939 113.29015544056892,245.2299881959334 117.48704663291574,252.30580009706318 117.48704663291574,244.3070552519057 107.97409326490015,236.92358374316245 79.15544041618705,236.30829381244257 85.59067357704043,245.8452767028939 115.80829015560448,245.8452767028939 119.16580310929567,250.76758122304454 122.52331606205553,243.9994108879473 113.56994818616658,235.38535873242654 90.34715026058257,240.92296589864418 79.71502590738237,236.61593878967687 83.6321243532002,244.3070552519057 116.08808290027082,245.8452767028939 119.16580310929567,251.075225046603 122.80310880765319,250.1522935021203 121.40414507780224,244.3070552519057 109.37305699381977,234.4624234312214 93.70466321427375,240.61532126460224 80.27461140044034,232.9241974398028 83.6321243532002,243.9994108879473 92.02590673603117,243.9994108879473 94.82383419759572,249.22936173575 90.06735751312226,252.30580009706318 73.0,244.922343906248 75.51813471503556,239.07709772721864 87.26943005248904,229.23245255323127 87.26943005248904,232.9241974398028 95.94300518278033,237.53887357516214 121.68393782526255,230.770680018235 120.28497409261763,249.5370056827087 115.5284974090755,253.53637475473806 83.35233160667121,253.84401835734025 75.51813471503556,244.3070552519057 123.36269429977983,228.61716139502823 125.60103626921773,244.3070552519057 121.96373056992888,252.61344379838556 116.08808290027082,255.07459252350964 95.38341969065368,251.38286884641275 91.1865284992382,255.6898794597946 77.75647668540478,243.07647764892317 84.75129533745348,236.92358374316245 120.56476683914661,229.54009809507988 127.0,246.15292091970332 118.32642486970872,255.07459252350964 97.90155440475792,249.84464960428886 89.50777202192694,251.69051262154244 80.27461140044034,243.6917664988432 86.43005181476474,233.5394879092928 118.88601036276668,229.23245255323127 123.64248704630882,236.92358374316245 116.64766839426011,253.84401835734025 75.79792746249586,246.46056511206552 81.39378238469362,240.30767660634592 111.33160621766001,232.9241974398028 108.81347150262445,224.31012053997256" stroke="#4dd2ff" stroke-linecap="round" stroke-linejoin="round" stroke-width="0.5"><title>2021-10-20 3.7km</title></polyline><polyline fill="none" points="150.61332048475742,221.10486936278176 151.5562745910138,219.03153597796336 151.8134438926354,220.06820312491618 151.29910528939217,216.2985000507906 147.44156576227397,213.0 141.78384112287313,215.63880077702925 140.92661011684686,223.17819911125116 144.26981104025617,221.76456558622885 144.35553414095193,223.8378941777628 139.38359430618584,237.9741285679629 137.84057849552482,253.24107185646426 143.06968763191253,255.6913036548067 149.41319707641378,256.53945963282604 186.5312996348366,251.26203477394301 178.90194368176162,254.1834693029523 156.87110682809725,256.25674104108475 153.95652140770108,258.7069665895542 153.09929040214047,267.0 152.07061319472268,258.89544526755344 138.44064019992948,256.7279386561131 136.72617818741128,257.2933755465783 133.4687003651634,264.0785971393343 139.72648670850322,236.0893070823513 139.29787120549008,242.1207252588356 138.52636330015957,245.04218237649184 138.7835326017812,238.82229725609068 140.755163915921,225.25152522337157 142.46962592750788,224.0263784150593 150.61332048475742,226.94788024702575 152.67067489912733,222.70698812406044 151.8134438926354,222.04729242646135" stroke="#4dd2ff" stroke-linecap="round" stroke-linejoin="round" stroke-width="0.5"><title>2021-10-19 3.1km</title></polyline></svg>